<?xml version="1.0" encoding="UTF-8" standalone="no"?>
<svg xmlns:dc="http://purl.org/dc/elements/1.1/" xmlns:cc="http://web.resource.org/cc/" xmlns:rdf="http://www.w3.org/1999/02/22-rdf-syntax-ns#" xmlns:svg="http://www.w3.org/2000/svg" xmlns="http://www.w3.org/2000/svg" xmlns:sodipodi="http://sodipodi.sourceforge.net/DTD/sodipodi-0.dtd" xmlns:inkscape="http://www.inkscape.org/namespaces/inkscape" version="1.0" width="768" height="464" id="svg2" sodipodi:version="0.32" inkscape:version="0.44" sodipodi:docname="Table_hiragana.svg" sodipodi:docbase="/home/pm/Desktop/SVG">
	<metadata id="metadataKatakana">
		<rdf:RDF>
			<cc:Work rdf:about="">
				<dc:format>image/svg+xml</dc:format>
				<dc:type rdf:resource="http://purl.org/dc/dcmitype/StillImage"/>
			</cc:Work>
		</rdf:RDF>
	</metadata>
	<sodipodi:namedview inkscape:window-height="720" inkscape:window-width="1272" inkscape:pageshadow="2" inkscape:pageopacity="0.0" guidetolerance="10.0" gridtolerance="10.0" objecttolerance="10.0" borderopacity="1.0" bordercolor="#666666" pagecolor="#ffffff" id="base" inkscape:zoom="1.2008624" inkscape:cx="341.14809" inkscape:cy="169.85181" inkscape:window-x="0" inkscape:window-y="0" inkscape:current-layer="svg2" showguides="true" inkscape:guide-bbox="true"/>
	<!-- arrow ends -->
	<defs id="defsKatakana">
		<marker refX="0" refY="0" orient="auto" style="overflow:visible" id="Arrow2Mend">
			<path d="M 8.7185878,4.0337352 L -2.2072895,0.016013256 L 8.7185884,-4.0017078 C 6.97309,-1.6296469 6.9831476,1.6157441 8.7185878,4.0337352 z " transform="scale(-0.6,-0.6)" class="arrow" id="path3344" style="stroke:blue"/>
		</marker>
		<marker refX="0" refY="0" orient="auto" style="overflow:visible" id="Arrow2Send">
			<path d="M 8.7185878,4.0337352 L -2.2072895,0.016013256 L 8.7185884,-4.0017078 C 6.97309,-1.6296469 6.9831476,1.6157441 8.7185878,4.0337352 z " transform="matrix(-0.3,0,0,-0.3,0.69,0)" class="arrow" id="path3338" style="stroke:blue"/>
		</marker>
		<marker refX="0" refY="0" orient="auto" style="overflow:visible" id="Arrow1Send">
			<path d="M 0,0 L 5,-5 L -12.5,0 L 5,5 L 0,0 z " transform="matrix(-0.2,0,0,-0.2,-1.2,0)" class="arrow" id="path3356" style="stroke:blue"/>
		</marker>
		<marker refX="0" refY="0" orient="auto" style="overflow:visible" id="Arrow1Mend">
			<path d="M 0,0 L 5,-5 L -12.5,0 L 5,5 L 0,0 z " transform="matrix(-0.4,0,0,-0.4,-4,0)" class="arrow" id="path3362" style="stroke:blue"/>
		</marker>
		<marker refX="0" refY="0" orient="auto" style="overflow:visible" id="Arrow1Lend">
			<path d="M 0,0 L 5,-5 L -12.5,0 L 5,5 L 0,0 z " transform="matrix(-0.8,0,0,-0.8,-10,0)" class="arrow" id="path3368" style="stroke:blue"/>
		</marker>
	</defs>
	<style type="text/css">
		path.stroke /* arrow lines */
		{
			fill: none; fill-opacity: 0.75; fill-rule: evenodd;
			stroke: blue; stroke-width: 1px; stroke-linecap: butt; stroke-linejoin: miter; stroke-opacity:1;
			marker-end: url(#Arrow1Mend);
		}
		path.arrow /* heads */
		{
			font-size: 12px;
			fill-rule: evenodd;
			fill: blue;
			stroke: blue; stroke-width: 1pt;/*0.625*/ stroke-linejoin: round;
			marker-start: none;
		}
		text.number
		{
			font-size: 8px;
			fill: blue;
		}
		text.label
		{
			font-size: 22px;
		}
		text.cell
		{
			font-style: italic;
			text-transform: lowercase;
			fill: gray;
/*			display: none;*/
		}
/*		path.old
		{
			fill: gray;
		}
*/		path.rule
		{
			fill: none; fill-opacity: 0.75; fill-rule: evenodd;
			stroke: black; stroke-width: 1px; stroke-linecap: butt; stroke-linejoin: miter; stroke-opacity: 0.1;
		}
		path.rule[id*="V"]
		{
			stroke-opacity: 0;
			}
		path#ruleH1, path#ruleV12
		{
			stroke-opacity: 0.8;
		}
		defs marker
		{
			overflow: visible;
		}
	</style>
	<!-- table rules -->
	<g id="gTable">
		<!-- vertical rules, left to right -->
		<path d="M 16.5,47.5 L 16.5,447.5" class="rule" id="ruleV01"/>
		<path d="M 80.5,47 L 80.5,447" class="rule" id="ruleV02"/>
		<path d="M 144.5,47 L 144.5,447" class="rule" id="ruleV03"/>
		<path d="M 208.5,47 L 208.5,447" class="rule" id="ruleV04"/>
		<path d="M 272.5,47 L 272.5,447" class="rule" id="ruleV05"/>
		<path d="M 336.5,47 L 336.5,447" class="rule" id="ruleV06"/>
		<path d="M 400.5,47 L 400.5,447" class="rule" id="ruleV07"/>
		<path d="M 464.5,47 L 464.5,447" class="rule" id="ruleV08"/>
		<path d="M 528.5,47 L 528.5,447" class="rule" id="ruleV09"/>
		<path d="M 592.5,47 L 592.5,447" class="rule" id="ruleV10"/>
		<path d="M 656.5,47 L 656.5,447" class="rule" id="ruleV11"/>
		<path d="M 720.5,47 L 720.5,447" class="rule" id="ruleV12"/>
		<!-- horizontal rules, top to bottom -->
		<path d="M 16.5,47.5 L 80.5,47.5 L 144.5,47.5 L 208.5,47.5 L 272.5,47.5 L 336.5,47.5 L 400.5,47.5 L 464.5,47.5 L 528.5,47.5 L 592.5,47.5 L 656.5,47.5 L 720.5,47.5" class="rule" id="ruleH1"/>
		<path d="M 16.5,127.5 L 720.5,127.5" class="rule" id="ruleH2"/>
		<path d="M 16.5,207.5 L 720.5,207.5" class="rule" id="ruleH3"/>
		<path d="M 16.5,287.5 L 16.5,287.5 L 720.5,287.5" class="rule" id="ruleH4"/>
		<path d="M 16.5,367.5 L 720.5,367.5" class="rule" id="ruleH5"/>
		<path d="M 16.5,447.5 L 720.5,447.5" class="rule" id="ruleH6"/>
	</g>
	<!-- glyphs -->
	<text x="38.317238" y="122.67139" id="cellN" class="label cell">N</text>
	<g id="gN">
		<path id="path2065" d="M 32.400538,62.324714 L 30.056788,66.387214 C 33.369278,67.855994 36.619268,70.168514 39.838038,73.293464 C 41.056768,71.699744 42.119258,70.387264 43.025538,69.355964 C 39.744268,66.887244 36.213018,64.543514 32.400538,62.324714 z M 61.494288,68.980964 C 60.119248,73.293484 57.931748,77.106004 54.900538,80.449714 C 51.869258,83.762234 48.213008,86.449754 43.931788,88.512214 C 39.650528,90.574724 36.525518,91.699744 34.588038,91.887214 C 32.681778,92.043474 31.525518,92.074744 31.119288,91.980964 C 30.588028,92.043464 30.369268,92.355984 30.463038,92.887214 L 32.619288,98.137218 C 32.869278,98.480968 33.150518,98.418488 33.463038,97.980968 L 34.088038,97.199718 C 38.244278,96.074714 42.650508,94.262244 47.306788,91.793464 C 51.963008,89.293464 55.869238,86.168494 59.056788,82.387214 C 62.244248,78.605984 64.744238,74.793504 66.525538,70.949714 C 65.056748,70.543494 63.369238,69.887264 61.494288,68.980964 z "/>
		<path id="path2221" d="M 34.446701,57.999999 L 47.106599,65.949238" class="stroke"/>
		<text x="36.601616" y="57.005466" class="number">1</text>
		<path id="path3144" d="M 34.741117,102.45685 C 41.160363,101.35062 54.727498,92.892657 59.481273,90.12096" class="stroke"/>
		<text x="27.337442" y="105.30408" class="number">2</text>
	</g>
	<!-- -A -->
	<text x="94.317238" y="122.67139" id="cellWA" class="label cell">WA</text>
	<g id="gWA">
		<path id="path2075" d="M 95.858226,81.183139 L 95.858226,64.964389 L 124.87385,64.964389 L 124.9676,64.823769 C 125.09257,64.667549 125.23319,64.667549 125.38948,64.823769 C 126.23319,65.542549 127.24881,66.386289 128.43635,67.355009 C 128.84256,67.823789 128.82694,68.292539 128.38948,68.761269 L 127.87385,69.276889 C 127.71756,72.308159 127.38944,75.136289 126.88948,77.761269 C 126.42069,80.386279 125.15507,83.183149 123.0926,86.151889 C 121.06132,89.089399 118.51445,91.495639 115.45198,93.370639 C 112.38945,95.214389 108.53008,96.761259 103.87385,98.011269 C 103.46759,96.573759 102.85822,95.058139 102.04573,93.464389 L 102.04573,93.136269 C 105.79571,92.667519 109.04571,91.761269 111.79573,90.417509 C 114.57695,89.073769 116.93633,87.089399 118.87385,84.464389 C 120.84257,81.808149 122.0457,79.276909 122.48323,76.870639 C 122.95194,74.433159 123.20194,71.792539 123.23323,68.948769 L 100.31135,68.948769 L 100.31135,81.183139 L 95.858226,81.183139"/>
		<path id="path4065" d="M 91.269036,65.036398 L 90.97462,78.579545" class="stroke"/>
		<text x="83.413795" y="68.310905" class="number">1</text>
		<path id="path4986" d="M 98.629442,61.356195 C 99.512691,61.356195 114.96954,61.650611 114.96954,61.650611" class="stroke"/>
		<text x="98.916306" y="58.573795" class="number">2</text>
	</g>
	<text x="160.31723" y="122.67139" id="cellRA" class="label cell">RA</text>
	<g id="gRA">
		<path id="path2093" d="M 165.30348,58.526321 L 165.30348,62.620071 L 187.70973,62.620071 L 187.70973,58.526321 L 165.30348,58.526321 z M 190.77223,68.370071 C 190.70192,68.370071 190.64721,68.385701 190.58473,68.463821 L 190.42848,68.620071 L 160.02223,68.620071 L 160.02223,72.588821 L 188.42848,72.588821 C 188.3347,74.557591 187.80344,76.620111 186.83473,78.745071 C 185.86595,80.838831 184.49094,82.745111 182.74098,84.495071 C 181.0222,86.213821 178.74095,87.745101 175.86598,89.057571 C 172.99097,90.338821 168.99095,91.151351 163.89723,91.526321 L 163.89723,91.870071 C 164.58472,93.557571 165.02221,95.182591 165.20973,96.745071 C 171.45971,95.370071 176.0847,93.901341 179.08473,92.338821 C 182.0847,90.745071 184.64719,88.776351 186.74098,86.432571 C 188.8347,84.088831 190.36593,81.807601 191.36598,79.588821 C 192.36594,77.338841 192.99093,75.182581 193.24098,73.120071 L 194.05348,72.401321 C 194.55344,71.995101 194.55343,71.526341 194.08473,70.995071 C 192.83469,69.932591 191.80343,69.088841 190.99098,68.463821 C 190.91284,68.385711 190.84254,68.370071 190.77223,68.370071 z "/>
		<path id="path5907" d="M 165.50606,54.918984 L 181.95257,54.918984" class="stroke"/>
		<text x="159.5204" y="56.239838" class="number">1</text>
		<path id="path6828" d="M 155.01014,65.507613 L 170.02537,65.507613" class="stroke"/>
		<text x="149.81461" y="67.589211" class="number">2</text>
		<path id="path7749" d="M 187.98477,65.507613 C 187.98477,65.507613 194.86676,64.18274 197.11168,66.832486 C 199.35661,69.482232 196.84513,75.531609 195.92355,78.292527" class="stroke"/>
	</g>
	<text x="226.31723" y="122.67139" id="cellYA" class="label cell">YA</text>
	<g id="gYA">
		<path id="path2099" d="M 233.627,60.814348 L 238.45513,60.298728 C 238.89261,60.330018 239.03324,60.548768 238.877,60.954978 L 238.59575,61.939348 C 239.12699,64.939388 239.68948,67.939378 240.28325,70.939348 C 246.03323,69.970628 251.7676,68.892508 257.48638,67.704978 L 257.627,67.517478 C 257.75197,67.361258 257.89259,67.361258 258.04888,67.517478 C 259.58009,68.361258 261.15821,69.345628 262.78325,70.470608 C 263.40821,71.033128 263.34571,71.470628 262.59575,71.783108 L 260.39263,72.861228 L 260.34575,72.861228 C 256.34572,78.517498 252.87697,82.720618 249.9395,85.470608 C 249.09572,84.283118 247.97073,83.204988 246.5645,82.236228 L 246.47075,81.626848 C 249.28322,79.783118 252.09572,76.658128 254.90825,72.251848 C 250.34572,72.970628 245.73635,73.767498 241.08013,74.642478 C 242.70511,82.329988 244.5801,90.017488 246.70513,97.704979 L 246.65825,98.173729 C 245.31448,98.517479 243.65823,99.048729 241.6895,99.767479 C 239.62698,89.611238 237.93949,81.517498 236.627,75.486228 C 232.40824,76.298748 228.15825,77.189368 223.877,78.158108 C 223.377,76.470628 222.65825,75.158128 221.72075,74.220608 L 221.76763,73.751848 C 226.45512,73.126878 231.14262,72.439378 235.83013,71.689348 C 234.42387,65.345638 233.58012,62.017518 233.29888,61.704978 C 233.04887,61.142518 233.15824,60.845638 233.627,60.814348"/>
		<path id="path8666" d="M 217.27919,71.101522 L 231.11675,68.746192" class="stroke"/>
		<text x="215.01785" y="68.310913" class="number">1</text>
		<path id="path9589" d="M 241.86294,54.908628 L 243.77665,65.80203" class="stroke"/>
		<text x="244.99779" y="57.402714" class="number">2</text>
		<path class="stroke" d="M 256.43655,65.213197 C 256.43655,65.213197 262.93653,64.266496 265.56346,66.53807 C 271.03524,71.269653 264.1519,77.943581 262.29349,80.288132" id="path10510" sodipodi:nodetypes="css"/>
	</g>
	<text x="288.31723" y="122.67139" id="cellMA" class="label cell">MA</text>
	<g id="gMA">
		<path id="path2115" d="M 284.94052,65.097655 L 320.00302,63.738285 L 320.23739,63.503905 C 320.36235,63.347685 320.50298,63.347685 320.65927,63.503905 C 321.62798,64.566435 322.62798,65.675805 323.65927,66.832025 C 324.03423,67.394555 323.97173,67.832055 323.47177,68.144525 L 322.20614,68.613285 C 320.1436,72.207055 317.92486,75.191425 315.54989,77.566405 C 313.17486,79.941425 310.59674,82.269545 307.81552,84.550785 C 310.03424,86.425785 312.12799,88.300785 314.09677,90.175785 L 314.09677,90.644525 C 313.00299,91.582035 311.72174,92.910155 310.25302,94.628905 C 307.75299,91.441405 305.17487,88.644535 302.51864,86.238285 C 299.86238,83.832045 296.98738,81.769545 293.89364,80.050785 L 296.47177,76.394525 C 299.3155,78.082045 301.95612,79.863295 304.39364,81.738285 C 306.51862,80.300795 308.67487,78.503925 310.86239,76.347655 C 313.08111,74.191425 315.12798,71.285175 317.00302,67.628905 C 306.97174,67.941435 296.67488,68.675805 286.11239,69.832025 C 285.83114,68.082055 285.36239,66.613305 284.70614,65.425785 L 284.94052,65.097655"/>
		<path id="path10512" d="M 298.11909,61.997231 C 298.11909,61.997231 318.78133,57.677419 325.39116,60.956312 C 332.00099,64.235205 326.09148,72.309722 324.55842,75.112805" class="stroke"/>
		<text x="292.93713" y="59.81469" class="number">1</text>
		<path id="path11433" d="M 291.45721,83.648338 L 304.57279,95.722994" class="stroke"/>
		<text x="287.88364" y="93.002129" class="number">2</text>
	</g>
	<text x="352.31723" y="122.67139" id="cellHA" class="label cell">HA</text>
	<g id="gHA">
		<path id="path2131" d="M 377.23479,66.548904 L 373.70354,69.267654 C 375.98476,71.642674 378.266,74.830164 380.54729,78.830154 C 382.8285,82.798914 384.76599,87.423904 386.35979,92.705154 C 388.67225,91.455154 390.45349,90.611404 391.67229,90.205154 L 391.67229,89.986404 C 389.48475,85.173914 387.10974,80.767664 384.54729,76.798904 C 382.01601,72.798934 379.5785,69.392674 377.23479,66.548904 z M 360.60979,68.392654 C 360.3051,68.386804 360.13321,68.587984 360.10979,68.986404 C 360.35978,69.392684 360.14102,70.642674 359.42229,72.736404 C 358.73478,74.830174 357.29727,77.642664 355.14104,81.205154 C 352.98478,84.767664 350.67228,87.642654 348.17229,89.830154 L 348.17229,90.455154 C 349.60979,91.423904 350.76603,92.548904 351.64104,93.861404 C 354.92229,89.705164 357.54727,85.892654 359.54729,82.423904 C 361.57852,78.955174 363.35976,75.173914 364.89104,71.048904 L 365.54729,70.423904 C 366.01602,70.080184 365.98476,69.798924 365.45354,69.580154 L 360.95354,68.455154 C 360.82073,68.408284 360.71135,68.394604 360.60979,68.392654 z "/>
		<path id="path12355" d="M 355.5778,67.410008 C 356.07224,71.911981 351.23197,79.250457 348.81183,82.919696" class="stroke"/>
		<path id="path13272" d="M 383.47441,66.577273 L 393.25905,82.399236" class="stroke"/>
		<text x="347.06491" y="69.599327" class="number">1</text>
		<text x="387.18729" y="68.852814" class="number">2</text>
	</g>
	<text x="416.31723" y="122.67139" id="cellNA" class="label cell">NA</text>
	<g id="gNA">
		<path id="path2145" d="M 421.99624,92.810502 C 424.99623,91.716762 427.37123,90.326142 429.12124,88.638632 C 430.87123,86.951142 432.07435,84.888642 432.73062,82.451132 C 433.38685,79.982402 433.76185,77.435522 433.85562,74.810502 L 415.29312,74.810502 L 415.29312,70.638632 L 433.85562,70.638632 C 433.82435,68.232412 433.69935,65.373042 433.48062,62.060502 C 433.4806,61.404292 433.38685,60.841792 433.19937,60.373002 C 433.01185,59.966792 433.13685,59.716792 433.57437,59.623002 L 438.35562,59.810502 C 438.82434,59.935542 438.91809,60.201172 438.63687,60.607382 L 438.12124,61.498002 C 438.27747,65.091792 438.37122,68.138662 438.40249,70.638632 L 454.48062,70.638632 L 454.48062,74.810502 L 438.35562,74.810502 C 438.26184,77.498022 437.85559,80.263652 437.13687,83.107382 C 436.44934,85.919892 435.1681,88.466762 433.29312,90.748002 C 431.44935,93.029262 428.58998,95.248012 424.71499,97.404262 C 423.99623,95.779262 423.08998,94.451132 421.99624,93.419882 L 421.99624,92.810502"/>
		<path id="path14197" d="M 413.03651,66.99364 L 428.65029,67.201824" class="stroke"/>
		<text x="411.60187" y="64.394737" class="number">1</text>
		<path id="path15118" d="M 442.95399,56.03134 L 442.53762,67.481445" class="stroke"/>
		<text x="445.89807" y="59.464146" class="number">2</text>
	</g>
	<text x="484.31723" y="122.67139" id="cellTA" class="label cell">TA</text>
	<g id="gTA">
		<path id="path2161" d="M 490.98978,58.370028 C 491.02101,57.838818 491.30226,57.666948 491.83353,57.854408 L 496.1929,58.698158 C 496.66163,58.885698 496.69288,59.166938 496.28665,59.541908 L 495.53665,60.198158 C 495.06788,61.510688 494.58351,62.760688 494.08353,63.948158 L 507.53665,63.948158 L 507.67728,63.760658 C 507.80224,63.604438 507.94287,63.604438 508.09915,63.760658 C 509.06787,64.448188 510.16162,65.260688 511.3804,66.198158 C 511.88037,66.573188 511.86474,66.995058 511.33353,67.463788 L 510.58353,67.885658 C 510.42724,70.010678 509.97412,72.260678 509.22415,74.635658 C 508.50537,77.010678 507.271,79.479418 505.52103,82.041908 C 506.11475,82.510668 506.7085,82.995048 507.30228,83.495028 C 506.146,84.776288 505.021,86.135668 503.92728,87.573158 C 503.4585,87.010668 502.97412,86.479418 502.47415,85.979408 C 500.72413,87.916918 498.4585,89.838788 495.67728,91.745028 C 492.92726,93.651288 488.77101,95.479408 483.20853,97.229408 C 482.70852,95.635658 482.03665,94.213778 481.1929,92.963788 L 481.1929,92.541908 C 485.84914,91.791908 489.61476,90.495038 492.48978,88.651288 C 495.36476,86.807538 497.67725,84.901288 499.42728,82.932528 C 498.67725,82.276298 497.56788,81.401298 496.09915,80.307528 C 494.63038,79.182548 492.31789,77.838798 489.16165,76.276288 L 491.3179,72.807528 C 494.59913,74.495048 497.03663,75.885678 498.6304,76.979408 C 500.22413,78.073178 501.36475,78.870048 502.05228,79.370028 C 503.2085,77.557548 504.11475,75.651298 504.77103,73.651288 C 505.42725,71.651308 505.84912,69.682558 506.03665,67.745028 L 492.30228,67.745028 C 491.58351,69.120058 490.50539,70.838808 489.0679,72.901288 C 487.63039,74.963798 485.39602,77.666928 482.36478,81.010658 C 481.39602,79.791918 480.2554,78.651298 478.9429,77.588788 L 478.9429,77.354408 C 481.7554,75.010678 484.13039,72.448178 486.0679,69.666908 C 488.00539,66.885688 489.36476,64.416938 490.14603,62.260658 C 490.95851,60.073188 491.23976,58.776318 490.98978,58.370028"/>
		<path id="path16039" d="M 487.77446,58.562199 C 485.95285,62.413598 480.27985,69.986281 477.78164,73.239152" class="stroke"/>
		<text x="478.09988" y="62.922657" class="number">1</text>
		<path id="path16960" d="M 502.1269,60.208121 C 502.1269,60.208121 511.87945,57.889593 514.6396,61.680202 C 517.39975,65.470811 514.36827,72.05206 513.16751,75.370557" class="stroke"/>
		<text x="508.04092" y="57.798676" class="number">2</text>
		<path id="path17881" d="M 487.03319,78.834856 L 494.73599,84.039449" class="stroke"/>
		<text x="482.36893" y="87.727226" class="number">3</text>
	</g>
	<text x="546.31726" y="122.67139" id="cellSA" class="label cell">SA</text>
	<g id="gSA">
		<path id="path2177" d="M 541.15833,71.058554 L 551.09583,71.058554 C 551.06457,68.652334 551.06457,66.167954 551.09583,63.605424 C 551.09582,62.949214 551.00207,62.386714 550.81458,61.917924 C 550.62707,61.511714 550.75207,61.261714 551.18958,61.167924 L 555.92395,61.542924 C 556.26769,61.761714 556.26769,62.027334 555.92395,62.339804 L 555.36145,63.136684 C 555.33019,65.917954 555.33019,68.558584 555.36145,71.058554 L 567.78333,71.058554 L 567.78333,61.449184 C 567.7833,60.792964 567.68955,60.230464 567.50208,59.761684 C 567.31455,59.355464 567.43955,59.105464 567.87708,59.011684 L 572.79895,59.386684 C 573.14267,59.636714 573.12704,59.933594 572.75208,60.277304 L 572.23645,61.027304 L 572.23645,71.058554 L 582.97083,71.058554 L 582.97083,75.042924 L 572.23645,75.042924 L 572.23645,75.277304 C 572.23642,78.683574 571.86142,81.699194 571.11145,84.324184 C 570.39267,86.917934 569.18955,89.214814 567.50208,91.214804 C 565.81455,93.214804 562.62706,95.464804 557.93958,97.964804 C 557.40831,96.621054 556.54894,95.324184 555.36145,94.074184 L 555.36145,93.558554 C 558.54894,92.496054 561.09581,91.183554 563.00208,89.621054 C 564.9083,88.027314 566.17393,86.074184 566.79895,83.761684 C 567.45518,81.449194 567.7833,78.621074 567.78333,75.277304 L 567.78333,75.042924 L 555.4552,75.042924 C 555.54894,78.636694 555.70519,81.949194 555.92395,84.980424 L 551.47083,85.636684 C 551.28332,82.292944 551.15832,78.761694 551.09583,75.042924 L 541.15833,75.042924 L 541.15833,71.058554"/>
		<path id="path18802" d="M 535.65672,67.930467 L 548.6682,68.034559" class="stroke"/>
		<text x="535.36383" y="65.572403" class="number">1</text>
		<path id="path19723" d="M 559.16788,58.007396 L 559.4623,68.606381" class="stroke"/>
		<text x="556.7027" y="56.828686" class="number">2</text>
		<path id="path20644" d="M 576.24515,57.962905 L 576.24515,68.476183" class="stroke"/>
		<text x="573.55823" y="56.792969" class="number">3</text>
	</g>
	<text x="610.31726" y="122.67139" id="cellKA" class="label cell">KA</text>
	<g id="gKA">
		<path id="path2187" d="M 605.10775,91.962143 C 608.29524,89.305893 610.96711,86.415273 613.12337,83.290263 C 615.31086,80.134023 616.68586,77.399653 617.24837,75.087143 C 617.84211,72.774653 618.23273,71.040283 618.42025,69.884013 C 613.95149,70.102783 609.46711,70.399663 604.96712,70.774643 C 604.90462,69.180913 604.71712,67.759033 604.40462,66.509013 L 604.40462,66.227763 L 618.93587,65.805883 C 619.06086,64.243413 619.13898,62.618413 619.17025,60.930883 L 619.17025,57.930883 C 619.17023,57.274673 619.07648,56.712173 618.889,56.243383 C 618.70148,55.837173 618.82648,55.587173 619.264,55.493383 L 623.9515,55.774643 C 624.38897,55.899673 624.42022,56.180923 624.04525,56.618383 L 623.5765,57.368383 L 623.5765,61.024643 C 623.54522,62.618413 623.45147,64.165293 623.29525,65.665263 L 635.2015,65.337143 L 635.34212,65.196513 C 635.46709,65.040293 635.60771,65.040293 635.764,65.196513 C 636.76396,65.884043 637.77959,66.618413 638.81087,67.399643 C 639.43583,67.774663 639.43583,68.180913 638.81087,68.618383 L 638.2015,69.087143 C 638.17021,75.180903 638.01396,79.665273 637.73275,82.540263 C 637.48271,85.415273 637.24834,87.368393 637.02962,88.399643 C 636.84209,89.399643 636.60771,90.274643 636.3265,91.024643 C 636.04521,91.774643 635.46709,92.587133 634.59212,93.462143 C 633.74834,94.368383 632.52959,94.602763 630.93587,94.165263 C 629.37334,93.727763 627.4046,93.134013 625.02962,92.384013 C 625.5296,90.915263 625.88897,89.384013 626.10775,87.790263 L 626.43587,87.696513 C 627.99835,88.509013 629.23272,89.009013 630.139,89.196513 C 631.04522,89.352763 631.60772,89.337143 631.8265,89.149643 C 632.07647,88.930893 632.32647,88.524643 632.5765,87.930883 C 632.82647,87.305893 633.10772,85.634023 633.42025,82.915263 C 633.73271,80.165273 633.85771,75.696533 633.79525,69.509013 C 630.13897,69.509033 626.4671,69.587163 622.77962,69.743383 C 622.56085,70.930913 622.12335,72.790283 621.46712,75.321513 C 620.81085,77.821523 619.51398,80.790273 617.5765,84.227763 C 615.67023,87.665263 612.63899,91.587143 608.48275,95.993383 C 607.51399,94.680883 606.38899,93.446513 605.10775,92.290263 L 605.10775,91.962143"/>
		<path id="path21565" d="M 602.08122,62.710659 L 614.4467,62.121826" class="stroke"/>
		<text x="601.01862" y="60.125702" class="number">1</text>
		<path id="path22486" d="M 631.67005,61.532994 C 631.67005,61.532994 638.8973,60.124143 642.74944,62.261637 C 646.55128,64.371215 645.42904,71.374829 645.42011,74.447257" class="stroke"/>
		<path id="path23403" d="M 627.9862,52.524871 L 627.36165,63.038149" class="stroke"/>
		<text x="630.08746" y="56.204132" class="number">2</text>
	</g>
	<text x="682.31726" y="122.67139" id="cellA" class="label cell">A</text>
	<g id="g114659">
		<path id="path2197" d="M 672.69322,62.030274 L 705.64635,61.608394 L 706.02135,61.139644 C 706.14631,60.983424 706.28694,60.983424 706.44322,61.139644 C 707.53693,62.014674 708.91193,63.092804 710.56822,64.374014 C 711.19318,64.936544 711.13068,65.405294 710.38072,65.780274 L 708.9276,66.436514 C 706.89631,69.311544 705.00569,71.655294 703.25572,73.467774 C 701.50569,75.249034 698.95882,77.327164 695.6151,79.702144 C 694.83382,78.139664 693.99007,76.983414 693.08385,76.233394 C 692.70882,80.170904 691.7557,83.936534 690.22447,87.530274 C 688.6932,91.124024 685.81821,94.577144 681.59947,97.889644 C 680.75571,96.420894 679.72446,95.139644 678.50572,94.045894 L 678.50572,93.764644 C 681.91196,91.827144 684.49008,89.264654 686.2401,86.077144 C 687.99008,82.858404 688.89633,78.405284 688.95885,72.717774 C 688.95883,72.061544 688.86508,71.499044 688.6776,71.030274 C 688.49008,70.624044 688.61508,70.374044 689.0526,70.280274 L 693.78697,70.561514 C 694.2557,70.655294 694.3182,70.889664 693.97447,71.264644 L 693.31822,72.155274 C 693.28695,73.249044 693.24007,74.295914 693.1776,75.295894 C 695.58382,74.202164 697.69319,72.874044 699.50572,71.311514 C 701.31819,69.749044 702.80256,67.749044 703.95885,65.311514 C 693.30257,65.405294 683.19321,65.842794 673.63072,66.624014 C 673.44322,65.092794 673.13072,63.780304 672.69322,62.686514 L 672.69322,62.030274"/>
		<path id="path24324" d="M 670.09138,59.177664 C 672.15229,59.177664 684.37056,58.588832 684.37056,58.588832" class="stroke"/>
		<text x="668.14557" y="56.29829" class="number">1</text>
		<path id="path25245" d="M 702.18274,58.883248 C 702.18274,58.883248 708.19174,56.920062 712.21815,59.367988 C 719.26578,63.652716 713.21334,71.286112 710.90808,74.87715" class="stroke"/>
		<path id="path26162" d="M 686.38173,72.198233 C 687.89106,78.651928 681.1251,85.313807 677.42984,89.269298" class="stroke"/>
		<text x="677.32422" y="79.154854" class="number">2</text>
	</g>
	<!-- -I -->
	<text x="98.317238" y="202.67139" id="cellWI" class="label cell">WI</text>
	<g id="gWI">
		<text x="96.811005" y="142.35658" class="number">1</text>
		<path class="old" id="path2073" d="M 113.72697,139.44051 C 113.44571,139.51084 113.34413,139.76868 113.41447,140.19051 C 113.60195,140.56555 113.69569,141.28432 113.69572,142.34676 L 113.69572,148.25301 L 97.039463,148.25301 L 97.039463,152.22176 L 101.50822,152.22176 L 101.50822,162.87801 L 92.914463,162.87801 L 92.914463,166.84676 L 113.69572,166.84676 L 113.69572,178.81551 L 118.13322,178.81551 L 118.13322,166.84676 L 132.85197,166.84676 L 132.85197,162.87801 L 118.13322,162.87801 L 118.13322,152.22176 L 126.57072,152.22176 L 126.57072,148.25301 L 118.13322,148.25301 L 118.13322,141.44051 L 118.69572,140.40926 C 118.94569,140.06554 118.91443,139.81557 118.60197,139.65926 L 114.07072,139.44051 C 113.9379,139.42489 113.82072,139.41707 113.72697,139.44051 z M 105.85197,152.22176 L 113.69572,152.22176 L 113.69572,162.87801 L 105.85197,162.87801 L 105.85197,152.22176 z "/>
		<path id="path45507" d="M 98.456976,144.85279 L 108.90876,144.85279" class="stroke"/>
		<path id="path46424" d="M 95.80723,151.62436 L 95.512814,160.89848" class="stroke"/>
		<path id="path47341" d="M 94.827686,170.14868 L 109.71282,170.35686" class="stroke"/>
		<text x="87.650917" y="157.03352" class="number">2</text>
		<text x="94.729164" y="178.37236" class="number">3</text>
		<path id="path48266" d="M 122.20385,135.06971 L 122.09976,145.68709" class="stroke"/>
		<text x="125.22807" y="142.98114" class="number">4</text>
	</g>
	<text x="164.31723" y="202.67139" id="cellRI" class="label cell">RI</text>
	<g id="gRI">
		<text x="151.40292" y="145.9881" class="number">1</text>
		<path id="path2089" d="M 181.25809,137.36485 C 180.82056,137.45863 180.69555,137.70863 180.88309,138.11485 C 181.07056,138.58363 181.1643,139.14613 181.16434,139.80235 L 181.16434,151.5836 C 181.16431,156.67737 180.8518,160.39614 180.19559,162.7711 C 179.57056,165.14611 178.07056,167.33363 175.69559,169.30235 C 173.35182,171.2711 170.44557,172.67738 166.97684,173.55235 L 166.97684,174.0836 C 168.13308,175.17735 169.03931,176.48987 169.72684,178.05235 C 174.57056,175.73984 178.1018,173.39613 180.32059,171.0211 C 182.53931,168.61486 184.00805,166.05238 184.69559,163.30235 C 185.38306,160.52111 185.7268,156.61486 185.72684,151.5836 L 185.72684,139.23985 L 186.19559,138.17735 C 186.41431,137.92739 186.32055,137.70863 185.91434,137.5211 L 181.25809,137.36485 z M 163.16434,139.23985 C 162.72683,139.33363 162.60182,139.58363 162.78934,139.98985 C 162.97683,140.45863 163.07057,141.02113 163.07059,141.67735 L 163.07059,162.30235 L 167.63309,162.30235 L 167.63309,141.0836 L 168.19559,140.1461 C 168.47683,139.80238 168.41432,139.55238 168.00809,139.42735 L 163.16434,139.23985 z "/>
		<path id="path43665" d="M 158.21963,140.06613 L 158.21963,155.47172" class="stroke"/>
		<path id="path44582" d="M 191.52902,137.56792 L 191.52902,154.63899" class="stroke"/>
		<text x="195.24463" y="143.19493" class="number">2</text>
	</g>
	<text x="292.31723" y="202.67139" id="cellMI" class="label cell">MI</text>
	<g id="gMI">
		<path id="path2113" d="M 295.77332,139.59884 L 294.55457,143.59884 C 301.6483,144.56762 308.42953,146.47386 314.89832,149.31759 C 315.52329,147.69262 316.21078,146.31761 316.92957,145.19259 L 316.92957,144.91134 C 311.0233,142.94262 303.96079,141.16137 295.77332,139.59884 z M 295.58582,151.69259 L 294.46082,155.91134 C 300.86705,156.91136 307.14828,158.72385 313.30457,161.31759 C 314.05454,159.63011 314.77328,158.28635 315.46082,157.31759 L 315.46082,156.94259 C 309.27329,154.97386 302.64829,153.22386 295.58582,151.69259 z M 290.89832,163.69259 L 289.58582,168.38009 C 299.42955,169.88009 308.52328,172.84883 316.86707,177.25509 C 317.74203,175.34884 318.58578,173.75508 319.36707,172.47384 L 319.36707,172.09884 C 310.7733,168.66135 301.27329,165.84884 290.89832,163.69259 z "/>
		<path id="path42732" d="M 298.11909,135.90245 C 302.67311,136.08461 308.99669,139.07725 312.58786,140.79477" class="stroke"/>
		<text x="291.71875" y="137.24438" class="number">1</text>
		<path class="stroke" d="M 294.78815,147.56074 C 300.30502,147.24847 306.75871,150.47532 310.61011,152.55715" id="path43653"/>
		<text x="288.51093" y="149.85681" class="number">2</text>
		<path id="path43659" d="M 292.18586,160.67631 C 297.91091,160.49415 304.28654,163.40873 307.17509,164.52771" class="stroke"/>
		<text x="286.01273" y="162.13965" class="number">3</text>
	</g>
	<text x="358.31723" y="202.67139" id="cellHI" class="label cell">HI</text>
	<g id="gHI">
		<path id="path2127" d="M 381.586,151.23149 C 382.02346,151.73152 381.89846,151.98152 381.211,151.98149 L 380.086,151.93462 C 374.67972,154.15339 367.3516,156.09089 358.10162,157.74712 L 358.10162,166.32525 C 358.10161,168.6065 359.05474,169.74713 360.961,169.74712 L 384.72662,169.74712 L 384.07037,174.10649 L 361.05475,174.10649 C 356.11724,174.1065 353.64849,171.55962 353.6485,166.46587 L 353.6485,142.88775 C 353.64849,142.23153 353.55474,141.66903 353.36725,141.20025 C 353.17974,140.79403 353.30474,140.54403 353.74225,140.45025 L 358.5235,140.73149 C 358.92974,140.85653 358.99224,141.12215 358.711,141.52837 L 358.10162,142.41899 L 358.10162,153.95025 C 365.1016,152.73152 369.99222,151.49714 372.7735,150.24712 C 375.58597,148.99715 377.05472,148.1534 377.17975,147.71587 C 377.39847,147.2784 377.69534,147.13777 378.07037,147.29399 L 381.586,151.23149"/>
		<path id="path39973" d="M 360.5706,150.7947 C 366.26874,149.52372 369.9622,147.50222 374.20305,145.29442" class="stroke"/>
		<text x="360.83575" y="146.82085" class="number">1</text>
		<path id="path40894" d="M 349.74866,138.40065 L 349.64456,149.43439" class="stroke"/>
		<text x="343.47144" y="140.28036" class="number">2</text>
		<path id="path41815" d="M 348.73083,166.02072 C 348.73083,169.52338 347.83167,173.42784 351.1502,176.18511 C 354.46873,178.94238 361.35977,178.35548 366.33318,178.09755" class="stroke"/>
	</g>
	<text x="422.31723" y="202.67139" id="cellNI" class="label cell">NI</text>
	<g id="gNI">
		<path id="path2143" d="M 419.90051,145.69837 L 419.90051,149.85462 L 447.08801,149.85462 L 447.08801,145.69837 L 419.90051,145.69837 z M 413.24426,168.38587 L 413.24426,172.54212 L 453.74426,172.54212 L 453.74426,168.38587 L 413.24426,168.38587 z "/>
		<path id="path38131" d="M 423.37056,141.61421 L 442.50762,141.61421" class="stroke"/>
		<path id="path39048" d="M 415.42132,165.46193 L 438.6802,165.46193" class="stroke"/>
		<text x="422.87451" y="139.22214" class="number">1</text>
		<text x="414.87845" y="162.66011" class="number">2</text>
	</g>
	<text x="478.31723" y="202.67139" id="cellTI" class="label cell">CHI</text>
	<g id="gTI">
		<path id="path2159" d="M 477.17425,155.27386 L 496.2055,155.27386 L 496.2055,148.6176 C 496.20548,147.96138 496.11173,147.39888 495.92425,146.9301 L 495.87737,146.83636 C 492.59611,147.52388 488.40861,148.27388 483.31487,149.08636 C 482.90862,147.43013 482.37737,146.13326 481.72112,145.19573 L 481.81487,144.6801 C 486.43986,144.46139 490.36173,144.02389 493.5805,143.3676 C 496.83048,142.71139 499.7211,141.94576 502.25237,141.07073 C 504.78359,140.16452 506.08047,139.57077 506.143,139.28948 C 506.42422,138.82077 506.75234,138.78952 507.12737,139.19573 L 509.42425,142.52386 C 509.86171,143.02389 509.76796,143.30514 509.143,143.3676 L 508.2055,143.3676 C 504.67422,144.61764 501.4711,145.58639 498.59612,146.27386 L 500.93987,146.3676 C 501.37735,146.49263 501.43985,146.77388 501.12737,147.21136 L 500.65862,148.00823 L 500.65862,155.27386 L 517.67425,155.27386 L 517.67425,159.44573 L 500.518,159.44573 C 500.36172,161.60199 500.00235,163.77387 499.43987,165.96136 C 498.87735,168.11761 497.67423,170.25824 495.8305,172.38323 C 493.98673,174.50823 490.90861,176.4301 486.59612,178.14886 C 486.06486,176.64885 485.26799,175.38323 484.2055,174.35198 L 484.2055,173.83636 C 487.58049,172.99261 490.12736,171.83636 491.84612,170.3676 C 493.59611,168.86761 494.70548,167.18011 495.17425,165.3051 C 495.64298,163.39887 495.95548,161.44574 496.11175,159.44573 L 477.17425,159.44573 L 477.17425,155.27386"/>
		<path id="path35366" d="M 503.91827,136.69117 C 498.51072,139.54694 490.56619,140.30859 483.46575,141.41625" class="stroke"/>
		<text x="493.23999" y="136.86681" class="number">1</text>
		<path id="path36289" d="M 477.89313,152.09027 L 492.25781,152.09027" class="stroke"/>
		<text x="475.23376" y="150.00021" class="number">2</text>
		<path id="path37210" d="M 504.19088,160.9416 C 505.41026,169.14303 501.06443,171.91243 497.70454,175.3384" class="stroke"/>
		<text x="506.87769" y="171.65132" class="number">3</text>
	</g>
	<text x="542.40356" y="202.67139" id="cellSI" class="label cell">SHI</text>
	<g id="gSI">
		<path id="path2175" d="M 547.98723,139.6531 L 545.83098,143.37185 C 549.61222,144.65313 553.08095,146.80937 556.23723,149.87185 C 557.14346,148.43437 558.0497,147.09064 558.95598,145.80935 C 555.67471,143.46563 552.01845,141.40314 547.98723,139.6531 z M 543.11223,150.3406 L 540.95598,154.05935 C 544.73722,155.34062 548.20596,157.49686 551.36223,160.55935 C 552.26846,159.12186 553.1747,157.77813 554.08098,156.49685 C 550.79971,154.15312 547.14346,152.09063 543.11223,150.3406 z M 575.42473,150.43435 C 573.83095,154.12187 571.45593,157.59062 568.33098,160.8406 C 565.20595,164.05937 561.5497,166.62187 557.33098,168.5281 C 553.14347,170.40311 550.14346,171.46562 548.36223,171.68435 C 546.58097,171.9031 545.42471,171.96561 544.89348,171.9031 C 544.36222,171.96561 544.20596,172.24685 544.42473,172.74685 L 546.20598,177.4031 C 546.45597,177.9031 546.76846,177.90309 547.11223,177.43435 L 547.67473,176.6531 C 551.92472,175.55935 556.2997,173.87186 560.83098,171.5906 C 565.39345,169.27811 569.26844,166.34061 572.42473,162.80935 C 575.58094,159.27811 578.01843,155.99688 579.76848,152.9656 C 578.33094,152.34063 576.89343,151.49687 575.42473,150.43435 z "/>
		<path id="path31688" d="M 546.39471,135.27685 C 547.57237,135.57127 557.72973,141.31239 557.72973,141.31239" class="stroke"/>
		<path id="path32605" d="M 541.81339,145.52045 L 551.97075,151.70319" class="stroke"/>
		<path id="path33522" d="M 553.30915,179.50333 C 559.13325,178.26884 564.11957,174.75893 569.94367,170.81805" class="stroke"/>
		<text x="540.64099" y="138.33888" class="number">1</text>
		<text x="536.2168" y="147.81122" class="number">2</text>
		<text x="546.96503" y="183.30019" class="number">3</text>
	</g>
	<text x="614.40356" y="202.67139" id="cellKI" class="label cell">KI</text>
	<g id="gKI">
		<path id="path2185" d="M 635.82936,142.63266 L 636.86061,146.61703 C 632.76683,147.24206 628.54808,147.91393 624.20436,148.63266 C 624.82933,151.57018 625.50121,154.53892 626.21998,157.5389 C 631.3762,156.75767 636.36057,155.94517 641.17311,155.1014 L 642.53248,159.4139 C 637.59495,160.00767 632.46995,160.69517 627.15748,161.4764 C 628.31371,166.19516 629.54808,170.97641 630.86061,175.82016 L 630.81373,176.2889 C 629.53245,176.44515 627.93871,176.96078 626.03248,177.83578 C 624.75121,171.92953 623.61059,166.71079 622.61061,162.17953 C 617.20434,163.05454 611.6106,164.03891 605.82936,165.13266 C 605.64185,163.69517 605.21998,162.28892 604.56373,160.9139 L 604.70436,160.49203 C 610.57935,159.77329 616.26684,159.00767 621.76686,158.19516 C 621.01684,154.75767 620.36059,151.82018 619.79811,149.38266 C 615.73559,150.03893 611.56372,150.74205 607.28248,151.49203 C 607.06373,150.05455 606.71998,148.72643 606.25123,147.50766 L 606.39186,147.08578 C 610.7356,146.58581 614.92309,146.05456 618.95436,145.49203 C 617.95434,141.17956 617.34497,138.89832 617.12623,138.64828 C 616.75122,138.14832 616.84497,137.88269 617.40748,137.8514 L 622.14186,137.24203 C 622.51684,137.30457 622.62621,137.52332 622.46998,137.89828 L 622.18873,138.83578 C 622.56371,140.80456 622.96996,142.80456 623.40748,144.83578 C 627.75121,144.14831 631.89183,143.41394 635.82936,142.63266"/>
		<path id="path28925" d="M 603.70051,144.11675 L 614.4467,142.93909" class="stroke"/>
		<path id="path29842" d="M 604.43655,157.21827 L 616.80203,155.15736" class="stroke"/>
		<path id="path30759" d="M 623.86802,131.16243 L 626.51777,140.58375" class="stroke"/>
		<text x="598.51611" y="146.9785" class="number">1</text>
		<text x="598.56781" y="159.67769" class="number">2</text>
		<text x="628.15662" y="138.3325" class="number">3</text>
	</g>
	<text x="686.40356" y="202.67139" id="cellI" class="label cell">I</text>
	<g id="gI">
		<path id="path2195" d="M 696.93893,137.57394 C 697.0639,137.01148 697.39202,136.79273 697.9233,136.91769 L 702.84518,139.44894 C 703.34514,139.76147 703.37639,140.04272 702.93893,140.29269 L 701.6733,140.76144 C 699.61077,143.41772 697.67327,145.65209 695.8608,147.46457 C 694.04827,149.27709 692.53265,150.71459 691.31393,151.77707 L 692.8608,151.87081 C 693.36078,151.90209 693.45453,152.13646 693.14205,152.57394 L 692.6733,153.27707 L 692.6733,169.40207 C 692.67328,172.68332 692.73578,175.12081 692.8608,176.71457 L 687.93893,176.71457 C 688.12641,173.40207 688.22016,169.08957 688.22018,163.77707 L 688.22018,154.30831 C 687.37641,154.96458 685.84516,156.08958 683.62643,157.68331 C 681.43891,159.24583 677.14204,161.69895 670.7358,165.04269 C 670.1733,163.4802 669.37642,161.99583 668.34518,160.58957 L 668.34518,160.21457 C 672.97017,158.62083 677.28267,156.51146 681.28268,153.88644 C 685.28266,151.26146 688.47016,148.74584 690.84518,146.33957 C 693.22015,143.93334 694.89202,141.9646 695.8608,140.43331 C 696.82952,138.9021 697.1889,137.94898 696.93893,137.57394"/>
		<path id="path27083" d="M 691.58376,137.49238 C 689.78046,144.37436 677.34137,149.93147 670.82741,153.24365" class="stroke"/>
		<text x="679.03894" y="142.70946" class="number">1</text>
		<path id="path28004" d="M 698.94416,150.59391 L 698.94416,170.17259" class="stroke"/>
		<text x="701.61353" y="158.94165" class="number">2</text>
	</g>
	<!-- -U -->
	<text x="161.4827" y="282.67139" id="cellRU" class="label cell">RU</text>
	<g id="gRU">
		<path id="path2085" d="M 178.13182,220.91481 C 177.6943,221.0086 177.56929,221.25859 177.75682,221.66481 C 177.9443,222.1336 178.03804,222.69609 178.03807,223.35231 L 178.03807,249.78981 L 176.35057,250.44606 L 176.35057,250.91481 C 177.22555,251.60232 178.06929,252.72734 178.88182,254.28981 C 183.81929,251.97732 187.75678,249.47734 190.69432,246.78981 C 193.63178,244.07108 196.44427,240.57109 199.13182,236.25856 C 197.81928,235.35233 196.50677,234.38357 195.16307,233.35231 L 194.63182,233.44606 C 192.69428,237.97733 190.63177,241.22734 188.44432,243.19606 C 186.28804,245.13357 184.31928,246.60234 182.50682,247.63356 L 182.50682,222.78981 L 182.97557,221.94606 C 183.28804,221.53984 183.22553,221.25859 182.81932,221.10231 L 178.13182,220.91481 z M 166.94432,223.72731 C 166.50681,223.8211 166.3818,224.07109 166.56932,224.47731 C 166.78806,224.94609 166.8818,225.50858 166.88182,226.16481 C 167.00681,232.85234 166.16305,238.1336 164.35057,242.00856 C 162.53806,245.85231 159.6943,249.03984 155.81932,251.53981 L 155.81932,252.10231 C 157.03807,252.78981 158.22555,253.85233 159.38182,255.28981 C 163.44431,251.57106 166.4443,247.47734 168.38182,243.00856 C 170.3193,238.53983 171.28805,232.72733 171.25682,225.60231 L 171.72557,224.63356 C 171.9443,224.35234 171.8818,224.13359 171.53807,224.00856 L 166.94432,223.72731 z "/>
		<path id="path49187" d="M 163.54822,225.67005 C 163.50547,232.84449 157.96324,241.42407 155.68522,244.87115" class="stroke"/>
		<path id="path50104" d="M 185.21207,222.01907 L 185.31616,237.94513 L 193.8517,229.61778" class="stroke"/>
		<text x="154.89285" y="231.81256" class="number">1</text>
		<text x="187.47038" y="224.34244" class="number">2</text>
	</g>
	<text x="225.81364" y="282.67139" id="cellYU" class="label cell">YU</text>
	<g id="gYU">
		<path id="path2097" d="M 221.7911,246.55799 L 247.1036,246.55799 L 248.0411,228.97987 L 226.94735,228.97987 L 226.94735,224.99549 L 252.86922,224.99549 L 251.55672,246.55799 L 261.7286,246.55799 L 261.7286,250.54237 L 221.7911,250.54237 L 221.7911,246.55799"/>
		<path id="path51029" d="M 238.78673,221.25778 L 257.52327,221.25778 L 256.27416,235.62246" class="stroke"/>
		<path id="path51946" d="M 224.42205,254.35899 L 241.7013,254.35899" class="stroke"/>
		<text x="239.62363" y="219.11336" class="number">1</text>
		<text x="218.48976" y="258.2764" class="number">2</text>
	</g>
	<text x="287.81366" y="282.67139" id="cellMU" class="label cell">MU</text>
	<g id="gMU">
		<path id="path2107" d="M 302.20765,219.4925 C 302.23888,218.96128 302.52013,218.78941 303.0514,218.97687 L 307.97328,220.14874 C 308.5045,220.36753 308.5045,220.6644 307.97328,221.03937 L 307.1764,221.78937 C 305.95763,226.5394 304.64513,230.64877 303.2389,234.1175 C 301.86388,237.55501 299.92638,241.85188 297.4264,247.00812 C 298.80138,246.91438 300.69201,246.77375 303.09828,246.58624 C 305.53575,246.39875 310.5045,245.75813 318.00452,244.66437 C 316.66074,242.07063 314.83262,239.33626 312.52015,236.46124 L 316.22328,233.78937 C 318.81699,237.19564 320.98886,240.44563 322.7389,243.53937 C 324.48886,246.60188 325.98886,249.33625 327.2389,251.7425 L 327.14515,252.1175 C 325.64511,252.71125 323.92636,253.555 321.9889,254.64874 C 321.27011,252.3675 320.45761,250.18 319.5514,248.08624 C 312.77012,249.14875 307.77012,249.88312 304.5514,250.28937 C 301.36388,250.69562 296.44201,251.47687 289.78577,252.63312 L 289.1764,253.52374 C 288.83264,254.055 288.52014,254.08625 288.2389,253.6175 L 286.1764,248.27374 C 286.1139,247.7425 286.3014,247.57063 286.7389,247.75812 C 287.14514,247.88313 289.03577,247.78938 292.41078,247.47687 C 295.28576,242.00813 297.42638,237.33626 298.83265,233.46124 C 300.23888,229.58627 301.20763,226.39877 301.7389,223.89874 C 302.30138,221.36753 302.45763,219.89878 302.20765,219.4925"/>
		<path id="path52871" d="M 288.87711,233.34723 C 288.87711,233.34723 277.63519,248.3885 279.92521,254.37378 C 282.21523,260.35906 294.61326,257.18535 300.68694,255.96349" class="stroke"/>
		<path id="path53788" d="M 319.75083,233.15241 C 325.06723,235.18315 327.78905,243.6165 329.56633,247.93726" class="stroke"/>
		<text x="277.89774" y="238.83925" class="number">1</text>
		<text x="324.62683" y="234.5759" class="number">2</text>
	</g>
	<text x="353.81366" y="282.67139" id="cellHU" class="label cell">FU</text>
	<g id="gHU">
		<path id="path2125" d="M 352.70745,224.00217 L 382.61371,224.00217 L 382.66058,223.9553 C 382.78554,223.79908 382.92617,223.79908 383.08245,223.9553 C 383.92617,224.67408 384.94179,225.51782 386.12933,226.48654 C 386.53554,226.95532 386.51991,227.42407 386.08245,227.8928 L 385.47308,228.40842 C 385.22304,231.43969 384.61367,234.23657 383.64495,236.79904 C 382.70742,239.36156 381.09804,241.95531 378.81683,244.5803 C 376.5668,247.2053 373.8793,249.37718 370.75433,251.09592 C 367.66056,252.78342 363.26994,254.29905 357.58245,255.6428 C 357.39494,254.0178 357.03557,252.50217 356.50433,251.09592 L 356.50433,250.5803 C 360.91056,250.0803 364.55119,249.2053 367.42621,247.9553 C 370.30118,246.67405 372.72305,244.97093 374.69183,242.84592 C 376.66055,240.68968 378.11367,238.43969 379.05121,236.09592 C 379.98867,233.72094 380.51992,231.08032 380.64495,228.17404 L 352.70745,228.17404 L 352.70745,224.00217"/>
		<path id="path54713" d="M 352.41625,220.66498 L 364.78173,220.95939" class="stroke"/>
		<path id="path55630" d="M 381.78802,245.85701 C 380.32135,249.22726 372.04951,254.42241 369.32406,256.11502" class="stroke"/>
		<text x="352.82666" y="218.52452" class="number">1</text>
	</g>
	<text x="415.81366" y="282.67139" id="cellNU" class="label cell">NU</text>
	<g id="gNU">
		<path id="path2139" d="M 420.72968,223.80328 C 428.63591,223.64706 436.54215,223.31894 444.44843,222.8189 L 444.6828,222.4439 C 444.80777,222.28769 444.94839,222.28769 445.10468,222.4439 C 446.16714,223.25644 447.32339,224.28768 448.57343,225.53766 C 449.13589,225.91268 449.07339,226.31893 448.38593,226.7564 L 447.54218,227.27203 C 446.29214,231.1158 444.0734,235.41267 440.88593,240.16266 C 444.0109,242.53767 447.02652,245.06891 449.9328,247.7564 L 449.9328,248.17828 C 448.55777,249.24078 447.40152,250.50641 446.46406,251.97516 C 443.83902,248.69391 441.10465,245.85016 438.26093,243.4439 C 436.47965,245.38141 434.08903,247.42829 431.08906,249.58453 C 428.12029,251.74078 424.21404,253.81891 419.3703,255.8189 C 418.71405,254.2564 417.90155,252.83453 416.9328,251.55328 L 416.9328,251.03766 C 421.12029,250.19391 424.65154,248.83454 427.52656,246.95953 C 430.43278,245.08454 432.88591,243.02204 434.88593,240.77203 C 432.32341,238.95955 429.58903,237.35017 426.6828,235.9439 L 428.79218,232.24078 C 431.94841,234.0533 434.80778,235.85017 437.3703,237.6314 C 439.99527,233.94393 441.68277,230.39705 442.4328,226.99078 C 435.96403,227.24081 428.99529,227.67831 421.52656,228.30328 C 421.30779,226.58456 420.99529,225.19393 420.58906,224.1314 L 420.72968,223.80328"/>
		<path id="path57466" d="M 417.04061,220.81218 L 428.81726,220.22335" class="stroke"/>
		<text x="415.83173" y="218.2301" class="number">1</text>
		<path id="path58387" d="M 435.80965,250.54823 C 432.36866,255.00127 427.84201,256.25254 424.54823,257.61421" class="stroke"/>
		<path id="path59304" d="M 420.32294,236.3511 L 429.89938,241.86796" class="stroke"/>
		<text x="414.27036" y="239.15257" class="number">2</text>
	</g>
	<text x="475.81366" y="282.67139" id="cellTU" class="label cell">TSU</text>
	<g id="gTU">
		<path id="path2157" d="M 510.75255,221.22067 C 510.40097,221.2324 510.19783,221.44726 510.12755,221.84567 C 510.37751,222.2207 510.40876,223.43946 510.19005,225.50192 C 509.97127,227.56445 509.03376,230.78319 507.4088,235.18942 C 505.78377,239.56443 503.12752,243.28319 499.4088,246.34567 C 495.69002,249.37693 491.47127,251.50193 486.7838,252.68942 L 486.7838,253.06442 C 487.87754,254.37692 488.72128,255.78316 489.2838,257.31442 C 495.50252,254.65816 500.40877,251.59567 504.00255,248.12692 C 507.59627,244.65817 510.22125,240.68944 511.9088,236.22067 C 513.62751,231.7207 514.7525,227.72071 515.2838,224.18942 L 516.0963,223.37692 C 516.44,223.0332 516.40875,222.78321 516.00255,222.59567 L 511.1588,221.28317 C 511.01035,221.24411 510.86974,221.21676 510.75255,221.22067 z M 492.19005,221.31442 L 489.00255,224.00192 C 491.72129,226.56445 494.06503,229.81445 496.0338,233.75192 C 497.31502,232.62694 498.62752,231.62695 499.9713,230.78317 C 497.69002,227.43945 495.09627,224.2832 492.19005,221.31442 z M 481.69005,225.06442 L 478.50255,227.75192 C 481.2213,230.31444 483.56504,233.56445 485.5338,237.50192 C 486.81503,236.37694 488.12753,235.37694 489.4713,234.53317 C 487.19003,231.18945 484.59628,228.03319 481.69005,225.06442 z "/>
		<path id="path60225" d="M 494.10623,217.80704 L 501.31943,225.90349" class="stroke"/>
		<path id="path61142" d="M 483.54802,222.21246 L 490.83444,232.20528" class="stroke"/>
		<text x="479.78546" y="220.53798" class="number">1</text>
		<text x="488.84143" y="216.68658" class="number">2</text>
		<path id="path62067" d="M 519.20305,224.34518 C 517.39452,234.57794 515.46895,237.92034 513.5303,242.16782" class="stroke"/>
		<text x="517.46667" y="222.61983" class="number">3</text>
	</g>
	<text x="545.81366" y="282.67139" id="cellSU" class="label cell">SU</text>
	<g id="gSU">
		<path id="path2169" d="M 545.86192,223.37313 C 553.26816,223.49816 560.84628,223.31066 568.5963,222.81063 L 568.87755,222.57626 C 569.00252,222.42004 569.14314,222.42004 569.29942,222.57626 C 570.61189,223.57629 571.81501,224.46691 572.9088,225.24813 C 573.44001,225.68566 573.37751,226.12316 572.7213,226.56063 L 571.73692,227.21688 C 570.67439,230.1544 569.62752,232.4669 568.5963,234.15438 C 567.56502,235.81065 566.72127,237.07627 566.06505,237.95126 C 569.81502,240.73252 572.72126,243.09189 574.7838,245.02938 C 576.87751,246.93564 579.03376,248.84189 581.25255,250.74813 L 581.25255,251.17 C 579.94001,252.20126 578.69001,253.49813 577.50255,255.06063 C 575.15876,252.06063 572.97126,249.56063 570.94005,247.56063 C 568.94002,245.52939 566.45565,243.37314 563.48692,241.09188 C 562.83065,241.77939 561.6744,242.95127 560.01818,244.6075 C 558.3619,246.26376 556.08066,248.04501 553.17442,249.95126 C 550.29941,251.82626 546.67442,253.81063 542.29942,255.90438 C 541.83067,254.18563 541.14317,252.68563 540.23692,251.40438 L 540.23692,250.88876 C 543.76817,249.73251 546.89316,248.40439 549.61192,246.90438 C 552.36191,245.40439 554.98691,243.49814 557.48692,241.18563 C 560.01815,238.8419 562.01815,236.54502 563.48692,234.295 C 564.9869,232.04503 566.19002,229.56065 567.0963,226.84188 L 546.61192,228.01376 C 546.54942,226.45128 546.25254,225.04503 545.7213,223.795 L 545.86192,223.37313"/>
		<path id="path62988" d="M 556.79903,219.19163 C 556.79903,219.19163 571.88768,217.2873 575.31026,220.12106 C 578.73285,222.95481 574.79133,230.73573 573.40395,234.27395" class="stroke"/>
		<text x="551.29657" y="221.78709" class="number">1</text>
		<path id="path63909" d="M 563.24106,245.09482 L 571.36023,253.73444" class="stroke"/>
		<text x="558.89526" y="253.01463" class="number">2</text>
	</g>
	<text x="609.81366" y="282.67139" id="cellKU" class="label cell">KU</text>
	<g id="gKU">
		<path id="path2183" d="M 621.58376,219.03175 C 621.64624,218.56304 621.92749,218.39117 622.42751,218.51613 L 626.69314,219.35988 C 627.19311,219.51616 627.23999,219.78179 626.83376,220.15675 L 626.17751,220.81301 C 625.77124,222.00054 625.34936,223.14116 624.91188,224.23488 L 637.94314,224.23488 L 638.08376,224.04738 C 638.20873,223.89116 638.34935,223.89116 638.50564,224.04738 C 639.34935,224.73491 640.3806,225.54741 641.59938,226.48488 C 642.09935,226.85991 642.08372,227.28178 641.55251,227.75051 L 640.80251,228.26613 C 640.61497,230.0474 640.0056,232.2974 638.97438,235.01613 C 637.97435,237.70365 636.3806,240.51614 634.19314,243.45363 C 632.00561,246.35989 629.34936,248.96926 626.22438,251.28175 C 623.13062,253.56301 619.05249,255.64113 613.99001,257.51613 C 613.49,255.92238 612.81813,254.5005 611.97438,253.25051 L 611.97438,252.82863 C 616.13062,251.98488 619.72437,250.54738 622.75564,248.51613 C 625.78686,246.45364 628.27124,244.17239 630.20876,241.67238 C 632.17748,239.1724 633.59936,236.70365 634.47438,234.26613 C 635.3806,231.82865 635.91185,229.81303 636.06814,228.21925 L 623.08376,228.21925 C 622.30249,229.75053 621.17749,231.57865 619.70876,233.70363 C 618.24,235.7974 615.99,238.26615 612.95876,241.10988 C 611.99,239.89114 610.865,238.70365 609.58376,237.54738 L 609.58376,237.31301 C 612.365,235.46927 614.72437,233.18803 616.66188,230.46925 C 618.59937,227.71928 619.95874,225.23491 620.74001,223.01613 C 621.55249,220.76616 621.83374,219.43804 621.58376,219.03175"/>
		<path id="path64830" d="M 618.12691,219.78173 C 616.43925,224.88133 612.10107,229.77185 609.39851,233.10189" class="stroke"/>
		<text x="608.56055" y="223.11197" class="number">1</text>
		<path id="path65751" d="M 634.43989,221.0496 C 634.43989,221.0496 644.51078,219.98266 646.72273,222.81916 C 648.93468,225.65566 644.8751,232.08333 643.2877,235.31018" class="stroke"/>
		<text x="638.43494" y="219.0524" class="number">2</text>
	</g>
	<text x="680.04718" y="282.67139" id="cellU" class="label cell">U</text>
	<g id="gU">
		<path id="path2193" d="M 672.30187,243.32328 L 672.30187,226.72953 L 686.08312,226.72953 L 686.08312,220.49515 C 686.0831,219.83894 685.98935,219.27644 685.80187,218.80765 C 685.61435,218.40144 685.73935,218.15144 686.17687,218.05765 L 690.8175,218.24515 C 691.19247,218.40144 691.27059,218.63582 691.05187,218.94828 L 690.53624,219.83891 L 690.53624,226.72953 L 702.02062,226.72953 L 702.20812,226.58891 C 702.33308,226.43268 702.47371,226.43268 702.63,226.58891 C 703.56746,227.27643 704.64558,228.12018 705.86437,229.12015 C 706.36433,229.58893 706.36433,230.05768 705.86437,230.52641 L 705.30187,231.08891 C 704.98933,235.15143 704.44246,238.47955 703.66124,241.07328 C 702.87996,243.63579 701.47371,246.15141 699.4425,248.62015 C 697.44246,251.05766 695.08309,253.08891 692.36437,254.71391 C 689.6456,256.3389 685.9581,257.63578 681.30187,258.60453 C 681.0206,257.10453 680.4581,255.6514 679.61437,254.24515 L 679.61437,253.72953 C 683.2706,253.54203 686.30185,252.91703 688.70812,251.85453 C 691.14559,250.79203 693.34872,249.16704 695.3175,246.97953 C 697.31746,244.76079 698.64559,242.43267 699.30187,239.99515 C 699.95808,237.52642 700.37996,234.43268 700.5675,230.71391 L 676.755,230.71391 L 676.755,243.32328 L 672.30187,243.32328"/>
		<path id="path66672" d="M 682.30965,213.45177 L 682.01523,223.90355" class="stroke"/>
		<text x="675.24585" y="216.04597" class="number">1</text>
		<path id="path67593" d="M 668.03046,226.99492 L 667.88325,242.45178" class="stroke"/>
		<text x="661.10498" y="232.74275" class="number">2</text>
		<path id="path68514" d="M 679.21828,233.9137 C 679.21828,233.9137 693.68148,231.33756 696.44163,233.9137 C 699.20178,236.48984 692.63731,241.85031 690.25889,244.21827" class="stroke"/>
		<text x="685.67065" y="240.44554" class="number">3</text>
	</g>
	<!-- -E -->
	<text x="94.317238" y="362.67139" id="cellWE" class="label cell">WE</text>
	<g id="gWE">
		<path class="old" id="path2069" d="M 91.466631,329.4101 L 109.32601,329.4101 L 109.32601,316.2851 C 109.32598,315.22262 109.23223,314.50387 109.04475,314.12885 C 108.98223,313.62887 109.18536,313.37887 109.65413,313.37885 L 113.91975,313.70698 C 114.41973,313.80075 114.51348,314.05075 114.20101,314.45698 L 113.68538,315.20698 L 113.68538,317.7851 C 117.9041,315.56637 120.7166,313.2695 122.12288,310.89448 L 97.747881,310.89448 C 97.529121,309.582 97.154121,308.332 96.622881,307.14448 L 96.622881,306.7226 L 124.51351,306.7226 L 124.65413,306.5351 C 124.77909,306.37888 124.91972,306.37888 125.07601,306.5351 C 125.85722,307.22263 126.91972,308.207 128.26351,309.48822 C 128.88846,309.92575 128.82596,310.3945 128.07601,310.89448 L 127.18538,311.31635 C 125.59159,314.22262 121.93535,317.66012 116.21663,321.62885 C 115.56035,320.37887 114.7166,319.25387 113.68538,318.25385 L 113.68538,329.4101 L 131.40413,329.4101 L 131.40413,333.58198 L 91.466631,333.58198 L 91.466631,329.4101"/>
		<path id="path87855" d="M 96.568528,303.69036 L 108.7868,303.69036" class="stroke"/>
		<text x="95.386337" y="301.38467" class="number">1</text>
		<path id="path88776" d="M 106.2778,314.83636 L 105.96552,325.8701" class="stroke"/>
		<text x="97.884544" y="322.30713" class="number">2</text>
		<path id="path89697" d="M 91.392654,337.00793 L 104.50823,336.90384" class="stroke"/>
		<text x="85.809891" y="339.79456" class="number">3</text>
	</g>
	<text x="162.31723" y="362.67139" id="cellRE" class="label cell">RE</text>
	<g id="gRE">
		<path id="path2081" d="M 164.12762,331.445 L 164.12762,330.97624 L 165.44012,330.74187 L 165.44012,303.41374 C 165.44011,302.75753 165.34636,302.19503 165.15887,301.72624 C 164.97136,301.32003 165.09636,301.07003 165.53387,300.97624 L 170.12762,301.16374 C 170.53385,301.28878 170.61198,301.57003 170.36199,302.0075 L 169.89325,302.89812 L 169.89325,329.66374 C 171.95573,329.10125 174.09635,328.2575 176.31512,327.1325 C 178.56509,326.0075 180.98697,324.19501 183.58075,321.695 C 186.20571,319.16376 188.22133,316.08564 189.62762,312.46062 L 190.14325,312.36687 C 191.67446,313.33564 193.17445,314.11689 194.64325,314.71062 C 192.58071,318.08564 190.22133,321.17938 187.56512,323.99187 C 184.94009,326.77313 181.94009,329.05438 178.56512,330.83562 C 175.1901,332.58562 171.1901,334.1325 166.56512,335.47624 C 165.94011,333.97625 165.12761,332.6325 164.12762,331.445"/>
		<path id="path86934" d="M 160.09328,319.10413 C 160.14533,324.51691 158.18978,337.56998 162.28878,339.65118 C 167.67077,342.3838 174.65045,337.66089 178.25578,335.45178" class="stroke"/>
		<text x="151.61984" y="328.61816" class="number">1</text>
	</g>
	<text x="289.43399" y="362.67139" id="cellME" class="label cell">ME</text>
	<g id="gME">
		<path id="path2105" d="M 313.44106,300.54757 C 313.53478,300.01635 313.87853,299.82885 314.47231,299.98507 L 319.30043,300.92257 C 319.64415,301.07885 319.6754,301.32885 319.39419,301.67257 L 318.69106,302.46945 C 318.12852,305.75072 317.14415,308.87572 315.73793,311.84445 C 314.3629,314.81321 313.37853,316.79759 312.78481,317.79757 C 315.84728,320.17258 318.7379,322.50071 321.45669,324.78195 L 321.45669,325.20382 C 320.51915,325.92258 319.25352,327.26633 317.65981,329.23507 C 315.31603,326.70383 312.8004,324.29758 310.11293,322.01632 C 308.67541,323.98508 306.58166,326.34445 303.83169,329.09445 C 301.08166,331.8132 296.40979,334.53194 289.81606,337.25069 C 289.2848,335.84444 288.4723,334.36007 287.37856,332.79757 L 287.37856,332.42257 C 292.5973,331.07882 296.67542,329.1257 299.61293,326.56319 C 302.58166,323.96946 304.89416,321.50071 306.55043,319.15695 C 303.20666,316.68821 299.22229,314.37571 294.59731,312.21945 L 297.17543,308.18819 C 301.83166,310.50072 305.80041,312.79759 309.08169,315.07882 C 311.76915,309.51634 313.22228,305.7976 313.44106,303.92257 C 313.69103,302.0476 313.69103,300.9226 313.44106,300.54757"/>
		<path id="path85092" d="M 295.81643,303.78693 C 303.77343,305.89457 305.46342,308.50895 307.6241,310.45097" class="stroke"/>
		<path id="path86009" d="M 323.0297,302.53999 C 322.69433,306.88668 318.34339,313.42715 316.68315,316.09935" class="stroke"/>
		<text x="296.47263" y="302.41513" class="number">2</text>
		<text x="324.0209" y="312.63705" class="number">1</text>
	</g>
	<text x="353.43399" y="362.67139" id="cellHE" class="label cell">HE</text>
	<g id="gHE">
		<path id="path2123" d="M 363.39961,306.64144 C 364.21208,306.64147 366.32146,308.14147 369.72773,311.14144 C 373.1652,314.14146 379.93082,318.96958 390.02461,325.62582 L 389.97773,326.18832 C 388.91518,327.09457 387.75894,328.4852 386.50898,330.36019 C 376.25895,321.95395 369.94645,316.79771 367.57148,314.89144 C 365.22771,312.98521 363.86833,312.03209 363.49335,312.03206 C 363.02459,312.03209 362.41521,312.45396 361.66523,313.29769 C 360.91521,314.14146 357.05584,317.68833 350.08711,323.93832 C 349.05585,322.50083 347.93085,321.39146 346.71211,320.61019 L 346.66523,320.04769 C 353.88397,314.86021 358.30584,311.32897 359.93085,309.45394 C 361.58709,307.57897 362.74334,306.64147 363.39961,306.64144"/>
		<path id="path84171" d="M 351.20594,310.36041 C 354.2246,308.01834 357.55555,302.7617 363.2806,302.24124 C 369.00565,301.72078 372.84659,307.20347 374.83479,309.42359" class="stroke"/>
		<text x="360.36093" y="299.32379" class="number">1</text>
	</g>
	<text x="417.43399" y="362.67139" id="cellNE" class="label cell">NE</text>
	<g id="gNE">
		<path id="path2137" d="M 431.08406,296.27186 C 430.64654,296.36565 430.52153,296.61566 430.70906,297.02186 C 430.89654,297.49065 430.99028,298.05314 430.99031,298.70936 L 430.99031,304.80311 L 419.27156,304.89686 L 419.24031,305.30311 C 419.58404,306.55313 419.80279,307.86563 419.92781,309.24061 C 426.61529,308.77188 433.08403,308.52188 439.30281,308.45936 C 437.80278,311.74063 435.89653,314.36562 433.58406,316.36561 C 431.30279,318.36562 428.64653,320.14686 425.64656,321.67811 C 422.6778,323.17812 418.9278,324.42811 414.36531,325.45936 L 414.36531,325.99061 C 415.3028,327.33437 415.99029,328.74061 416.45906,330.24061 C 421.20905,328.45936 424.64653,326.95936 426.77156,325.74061 C 428.92779,324.52186 430.33403,323.70937 430.99031,323.30311 L 430.99031,337.17811 L 435.45906,337.17811 L 435.45906,322.08436 L 435.92781,321.24061 C 436.20903,320.89687 436.14652,320.64687 435.77156,320.49061 L 435.08406,320.45936 C 436.08404,319.70937 437.33402,318.61562 438.86531,317.17811 C 440.39653,315.70938 442.27152,312.92812 444.49031,308.83436 L 445.70906,308.17811 C 446.27152,307.83439 446.30276,307.42813 445.80281,306.99061 C 444.27153,305.95938 442.99027,305.08438 441.95906,304.36561 C 441.80278,304.20939 441.67777,304.20939 441.55281,304.36561 L 441.30281,304.70936 L 435.45906,304.74061 L 435.45906,298.27186 L 436.02156,297.33436 C 436.33404,296.9594 436.27153,296.7094 435.83406,296.58436 L 431.08406,296.27186 z M 441.64656,316.92811 L 439.30281,320.39686 C 443.08402,322.14688 446.61526,324.77186 449.92781,328.24061 C 450.89652,326.77187 451.92776,325.45936 452.99031,324.30311 L 452.99031,323.86561 C 449.20902,321.24062 445.42777,318.92812 441.64656,316.92811 z "/>
		<path id="path80487" d="M 439.47584,292.45661 L 439.47584,301.69246" class="stroke"/>
		<text x="442.20865" y="299.91263" class="number">1</text>
		<path id="path81408" d="M 416.74619,301.18782 L 426.90355,301.04061" class="stroke"/>
		<text x="414.70111" y="298.94672" class="number">2</text>
		<path id="path82329" d="M 444.81676,314.43655 L 455.16751,320.61929" class="stroke"/>
		<path id="path83246" d="M 427.26634,326.98189 L 427.34518,336.37056" class="stroke"/>
		<text x="447.72552" y="314.38138" class="number">4</text>
		<text x="419.20438" y="335.92838" class="number">3</text>
	</g>
	<text x="483.43399" y="362.67139" id="cellTE" class="label cell">TE</text>
	<g id="gTE">
		<path id="path2151" d="M 484.0412,303.74142 L 484.0412,307.89767 L 508.13495,307.89767 L 508.13495,303.74142 L 484.0412,303.74142 z M 477.1037,315.02267 L 477.1037,319.21017 L 495.63495,319.21017 C 495.66618,323.71018 494.66617,327.11644 492.6662,329.46017 C 490.66618,331.77268 487.82243,333.49142 484.13495,334.61642 L 484.13495,335.05392 C 485.13494,336.21017 485.94743,337.55391 486.57245,339.11642 C 491.25993,336.74142 494.69742,334.11643 496.8537,331.21017 C 499.00992,328.27268 500.13492,324.27269 500.2287,319.21017 L 515.9162,319.21017 L 515.9162,315.02267 L 477.1037,315.02267 z "/>
		<path id="path77722" d="M 484.02031,300.15735 L 496.68021,300.15735" class="stroke"/>
		<text x="484.01575" y="297.26288" class="number">1</text>
		<path id="path78645" d="M 476.94891,311.71361 L 492.87496,311.92179" class="stroke"/>
		<text x="475.79248" y="309.54572" class="number">2</text>
		<path id="path79566" d="M 503.9087,321.60233 C 504.32647,328.17185 504.35236,328.35657 498.8082,334.92609" class="stroke"/>
		<text x="505.52853" y="329.41882" class="number">3</text>
	</g>
	<text x="547.43396" y="362.67139" id="cellSE" class="label cell">SE</text>
	<g id="gSE">
		<path id="path2167" d="M 549.63176,328.44967 L 549.63176,315.32467 C 546.038,315.88719 542.50675,316.44969 539.03801,317.01217 C 538.85051,315.23094 538.52238,313.79344 538.05364,312.69967 L 538.14738,312.32467 C 541.95988,312.01219 545.788,311.65282 549.63176,311.24655 L 549.63176,303.09029 C 549.63175,302.43408 549.538,301.87158 549.35051,301.40279 C 549.163,300.99658 549.288,300.74658 549.72551,300.65279 L 554.74114,300.98092 C 555.11612,301.13721 555.17862,301.40283 554.92864,301.77779 L 554.17864,302.85592 L 554.17864,310.73092 C 560.58486,309.9497 567.03798,309.04345 573.53801,308.01217 L 573.63176,307.91842 C 573.75672,307.7622 573.89735,307.7622 574.05364,307.91842 C 575.08485,308.66845 576.42859,309.68407 578.08488,310.96529 C 578.70984,311.52782 578.64734,311.99657 577.89738,312.37155 L 576.81926,312.69967 C 573.35047,316.79344 569.75673,320.71531 566.03801,324.46529 C 564.97548,322.96531 563.95986,321.80906 562.99114,320.99655 L 562.99114,320.66842 C 566.27235,318.29344 569.16298,315.46532 571.66301,312.18405 C 565.66298,312.99657 559.83486,313.82469 554.17864,314.66842 L 554.17864,328.30905 C 554.17862,330.6528 555.13174,331.82467 557.03801,331.82467 L 575.45988,331.82467 L 574.80364,336.09029 L 557.13176,336.09029 C 552.13174,336.0903 549.63175,333.54342 549.63176,328.44967"/>
		<path id="path74963" d="M 535.55263,308.69494 L 546.27409,307.75812" class="stroke"/>
		<text x="533.77209" y="306.24258" class="number">1</text>
		<text x="561.61499" y="303.13467" class="number">2</text>
		<path id="path75888" d="M 558.14056,297.55711 L 558.03647,307.13356" class="stroke"/>
		<path id="path76805" d="M 571.56841,305.46809 C 574.64205,305.04433 578.17471,303.98436 580.6244,306.7172 C 585.39094,312.03468 579.31793,316.24932 576.72338,318.936" class="stroke"/>
	</g>
	<text x="611.43396" y="362.67139" id="cellKE" class="label cell">KE</text>
	<g id="gKE">
		<path id="path2181" d="M 611.0336,333.06924 C 615.25233,332.038 618.53358,330.6005 620.87735,328.75674 C 623.22108,326.913 624.89295,324.50676 625.89297,321.538 C 626.89295,318.56926 627.4242,315.38176 627.48673,311.9755 L 616.04923,311.9755 C 613.23671,316.78801 610.22109,320.89738 607.00235,324.30362 C 606.18984,323.14738 605.06484,322.03801 603.62735,320.9755 L 603.62735,320.55362 C 606.25234,318.58489 608.70547,315.78801 610.98673,312.163 C 613.26796,308.50677 614.67421,305.47552 615.20547,303.06924 C 615.73671,300.66303 615.87733,299.25678 615.62735,298.8505 C 615.65858,298.31928 615.93983,298.14741 616.4711,298.33487 L 620.7836,299.08487 C 621.28358,299.20991 621.34608,299.44428 620.9711,299.788 L 620.26797,300.538 C 619.70545,303.10053 618.95546,305.5224 618.01797,307.80362 L 642.3461,307.80362 L 642.3461,311.9755 L 631.89297,311.9755 C 631.83044,315.53801 631.31482,318.89739 630.3461,322.05362 C 629.37732,325.20988 627.72107,328.038 625.37735,330.538 C 623.03358,333.038 619.09608,335.35049 613.56485,337.4755 C 613.00234,336.03799 612.15859,334.67862 611.0336,333.39737 L 611.0336,333.06924"/>
		<path id="path72200" d="M 612.09137,298.24365 C 611.09771,303.54314 606.01903,310.0203 603.40609,313.5533" class="stroke"/>
		<text x="602.61993" y="304.3942" class="number">1</text>
		<path id="path73121" d="M 623.4264,304.72081 L 638.73604,304.86802" class="stroke"/>
		<text x="625.63147" y="302.19785" class="number">2</text>
		<path id="path74042" d="M 634.33581,315.98137 C 634.54399,323.39792 632.56625,326.26045 628.29848,332.01152" class="stroke"/>
		<text x="635.57294" y="325.29675" class="number">3</text>
	</g>
	<text x="681.43396" y="362.67139" id="cellE" class="label cell">E</text>
	<g id="gE">
		<path id="path2191" d="M 673.98786,306.51152 L 703.80036,306.51152 L 703.80036,310.6834 L 691.37848,310.6834 L 691.37848,329.38652 L 709.51911,329.38652 L 709.51911,333.5584 L 668.83161,333.5584 L 668.83161,329.38652 L 686.92536,329.38652 L 686.92536,310.6834 L 673.98786,310.6834 L 673.98786,306.51152"/>
		<path id="path69435" d="M 674.21472,303.09745 L 695.03309,303.09745" class="stroke"/>
		<text x="673.27985" y="301.00842" class="number">1</text>
		<path id="path70356" d="M 683.3748,312.46572 L 683.16662,326.41403" class="stroke"/>
		<text x="675.09338" y="319.71561" class="number">2</text>
		<path id="path71277" d="M 669.60942,337.60543 L 686.4723,337.60543" class="stroke"/>
		<text x="670.23553" y="345.32983" class="number">3</text>
	</g>
	<!-- -O -->
	<text x="92.317238" y="442.67139" id="cellWO" class="label cell">WO</text>
	<g id="gWO">
		<path id="path2067" d="M 97.647526,381.75818 L 125.4444,381.75818 L 125.72565,381.47693 C 125.85061,381.32071 125.99124,381.32071 126.14753,381.47693 C 127.36624,382.41446 128.52249,383.33634 129.61627,384.24256 C 130.17873,384.71133 130.11623,385.18008 129.42877,385.6488 L 128.72565,386.16443 C 128.50686,389.9457 128.06936,393.18008 127.41315,395.86756 C 126.78811,398.52382 125.38186,401.41444 123.1944,404.53943 C 121.00687,407.66444 118.44437,410.11756 115.5069,411.8988 C 112.60063,413.68006 108.78813,415.24255 104.0694,416.5863 C 103.66314,415.11755 103.00689,413.66443 102.10065,412.22693 L 102.10065,411.7113 C 105.97563,411.18006 109.31938,410.22693 112.1319,408.85193 C 114.97562,407.47694 117.22562,405.61756 118.8819,403.2738 C 120.56937,400.89882 121.75687,398.61757 122.4444,396.43006 L 99.335026,396.43006 L 99.335026,392.44568 L 123.3819,392.44568 C 123.72562,390.41445 123.92874,388.18008 123.99127,385.74256 L 97.647526,385.74256 L 97.647526,381.75818"/>
		<path id="path90618" d="M 97.84635,378.43649 L 109.60873,378.43649" class="stroke"/>
		<text x="96.84362" y="376.43491" class="number">1</text>
		<path id="path91539" d="M 96.200508,389.6599 L 109.89086,389.7335" class="stroke"/>
		<text x="90.072044" y="392.33337" class="number">2</text>
		<path id="path92460" d="M 129.68756,400.6602 C 129.22498,404.37303 127.94426,406.47918 118.98945,413.58581" class="stroke"/>
		<text x="131.22807" y="399.33337" class="number">3</text>
	</g>
	<text x="161.43398" y="442.67139" id="cellRO" class="label cell">RO</text>
	<g id="gRO">
		<path id="path2079" d="M 160.25978,384.867 L 160.25978,414.64825 L 164.79098,414.64825 L 164.79098,412.21075 L 188.60348,412.21075 L 188.60348,414.64825 L 193.16598,414.64825 L 193.16598,384.867 L 160.25978,384.867 z M 164.79098,389.14825 L 188.60348,389.14825 L 188.60348,407.9295 L 164.79098,407.9295 L 164.79098,389.14825 z "/>
		<path id="path93377" d="M 155.59898,389.95431 L 155.45178,405.41117" class="stroke"/>
		<text x="148.95531" y="394.83591" class="number">1</text>
		<path id="path94298" d="M 181.50761,381.71065 L 197.99492,381.85786 L 197.84772,393.04568" class="stroke"/>
		<text x="182.96039" y="379.82068" class="number">2</text>
		<path id="path95219" d="M 167.08121,415.2741 L 182.39086,415.42131" class="stroke"/>
		<text x="167.20912" y="423.09988" class="number">3</text>
	</g>
	<text x="225.43398" y="442.67139" id="cellYO" class="label cell">YO</text>
	<g id="gYO">
		<path id="path2095" d="M 255.16941,416.26032 L 250.71628,416.26032 L 250.71628,413.8697 L 226.10691,413.8697 L 226.10691,409.88532 L 250.71628,409.88532 L 250.71628,398.8697 L 228.54441,398.8697 L 228.54441,395.07282 L 250.71628,395.07282 L 250.71628,385.7447 L 226.10691,385.7447 L 226.10691,381.76032 L 255.16941,381.76032 L 255.16941,416.26032"/>
		<path id="path96140" d="M 245.86498,377.81194 L 259.18874,377.81194 L 259.18874,388.22113" class="stroke"/>
		<text x="245.55255" y="375.47482" class="number">1</text>
		<path id="path97061" d="M 226.99492,391.4264 L 244.95432,391.72081" class="stroke"/>
		<path id="path97978" d="M 225.52285,406.44162 L 238.03554,406.44162" class="stroke"/>
		<text x="220.35126" y="393.65823" class="number">2</text>
		<text x="219.3208" y="408.82071" class="number">3</text>
	</g>
	<text x="287.43396" y="442.67139" id="cellMO" class="label cell">MO</text>
	<g id="gMO">
		<text x="289.06296" y="377.34848" class="number">1</text>
		<path id="path2103" d="M 288.8774,383.83094 L 288.8774,387.79969 L 300.5024,387.79969 L 317.565,387.79969 L 317.565,383.83094 L 288.8774,383.83094 z M 300.5024,387.79969 C 300.065,387.89347 299.94,388.14346 300.1274,388.54969 C 300.315,389.01847 300.4087,389.58096 300.4087,390.23719 L 300.4087,396.20594 L 285.4087,396.20594 L 285.4087,400.17469 L 300.4087,400.17469 L 300.4087,407.54969 C 300.4087,412.64344 302.9087,415.17469 307.9087,415.17469 L 320.815,415.17469 L 321.4712,410.92469 L 307.5337,410.92469 C 305.7524,410.92469 304.8775,409.73719 304.8774,407.39344 L 304.8774,400.17469 L 323.94,400.17469 L 323.94,396.20594 L 304.8774,396.20594 L 304.8774,389.76844 L 305.44,388.89344 C 305.7212,388.51847 305.6899,388.26846 305.3462,388.17469 L 300.5024,387.79969 z "/>
		<path id="path98903" d="M 289.79174,380.10196 L 309.15283,380.10196" class="stroke"/>
		<path id="path99824" d="M 286.66899,392.59298 L 297.28636,392.59298" class="stroke"/>
		<text x="280.93271" y="393.86642" class="number">2</text>
		<path id="path100745" d="M 296.77157,407.61929 C 296.66116,411.62151 296.57836,415.37531 297.74223,416.9785 C 298.90609,418.58169 304.03998,418.32869 308.62184,418.29188" class="stroke"/>
		<text x="290.05963" y="415.94766" class="number">3</text>
	</g>
	<text x="351.43396" y="442.67139" id="cellHO" class="label cell">HO</text>
	<g id="gHO">
		<path id="path2121" d="M 365.67868,379.61588 C 365.42668,379.68621 365.35058,379.94403 365.39738,380.36588 C 365.58498,380.74092 365.67858,381.45966 365.67868,382.52213 L 365.67868,388.89713 L 348.55368,388.89713 L 348.55368,392.86588 L 365.67868,392.86588 L 365.67868,412.27213 C 365.67858,412.80338 365.58488,413.20962 365.42868,413.45963 C 365.27238,413.70963 364.92858,413.70963 364.36618,413.49088 C 363.83488,413.27214 363.02238,412.89713 361.92868,412.36588 L 361.64738,412.45963 C 361.49118,413.95963 361.20998,415.45962 360.83498,416.92838 C 362.67868,417.45963 364.27248,417.83462 365.58498,418.05338 C 366.92868,418.30338 367.99118,418.05337 368.77238,417.30338 C 369.58498,416.58463 370.02248,415.83463 370.08498,415.08463 C 370.14738,414.33463 370.14738,413.33462 370.11618,412.05338 L 370.11618,392.86588 L 387.83498,392.86588 L 387.83498,388.89713 L 370.11618,388.89713 L 370.11618,381.52213 L 370.58498,380.45963 C 370.77238,380.14717 370.70998,379.89716 370.39738,379.74088 L 365.99118,379.61588 C 365.87398,379.60026 365.76268,379.59244 365.67868,379.61588 z M 378.55368,397.36588 L 375.52238,400.17838 C 378.55368,403.6784 382.05358,407.70963 386.02238,412.24088 C 387.58498,410.61589 388.89738,409.42838 389.99118,408.67838 L 389.99118,408.42838 C 385.61618,404.83465 381.80368,401.14714 378.55368,397.36588 z M 356.55368,398.77213 C 356.39748,398.819 356.28808,398.97526 356.20998,399.20963 C 356.17868,399.52215 355.58488,400.83464 354.42868,403.17838 C 353.30368,405.4909 351.08488,408.02213 347.80368,410.77213 L 347.80368,411.30338 C 349.20993,412.20963 350.39738,413.27213 351.36618,414.52213 C 355.08488,410.24088 358.05368,406.02213 360.24118,401.83463 L 361.11618,401.30338 C 361.61618,400.95965 361.58488,400.67839 360.99118,400.45963 L 357.14738,398.92838 C 356.91308,398.78776 356.70988,398.72526 356.55368,398.77213 z "/>
		<path id="path101666" d="M 348.96949,385.87561 L 360.62724,386.02282" class="stroke"/>
		<text x="347.6875" y="383.09702" class="number">1</text>
		<path id="path102587" d="M 374.17145,376.61029 L 374.06736,386.08265" class="stroke"/>
		<text x="377.14551" y="382.16019" class="number">2</text>
		<path id="path103508" d="M 354.03553,397.38833 L 346.45432,406.80965" class="stroke"/>
		<path id="path104425" d="M 383.55077,397.60914 L 391.5,405.41117" class="stroke"/>
		<text x="342.46161" y="400.17316" class="number">3</text>
		<text x="389.05298" y="399.95236" class="number">4</text>
	</g>
	<text x="416.84512" y="442.67139" id="cellNO" class="label cell">NO</text>
	<g id="gNO">
		<path id="path2133" d="M 442.99503,380.06382 C 442.96383,379.5326 443.24503,379.3451 443.83883,379.50132 L 448.94823,380.57944 C 449.41693,380.79823 449.44813,381.11073 449.04193,381.51694 L 448.24503,382.31382 C 447.74503,385.2826 446.51063,389.03259 444.54193,393.56382 C 442.60443,398.06384 439.93253,402.11071 436.52633,405.70444 C 433.12003,409.2982 427.66693,412.7357 420.16693,416.01694 C 419.60443,414.32944 418.74503,412.78257 417.58883,411.37632 L 417.58883,411.00132 C 423.49503,409.65757 428.27633,407.28258 431.93253,403.87632 C 435.58883,400.47008 438.30753,396.59509 440.08883,392.25132 C 441.90133,387.87635 442.90133,384.8451 443.08883,383.15757 C 443.27633,381.4701 443.24503,380.43885 442.99503,380.06382"/>
		<path id="path105350" d="M 438.89134,380.34586 C 437.40095,388.7912 432.98489,393.09558 429.6912,396.75666" class="stroke"/>
		<text x="429.71188" y="387.05252" class="number">1</text>
	</g>
	<text x="482.32468" y="442.67139" id="cellTO" class="label cell">TO</text>
	<g id="gTO">
		<path id="path2147" d="M 494.20149,388.65125 C 500.13899,391.30752 505.56089,394.43251 510.46719,398.02625 L 510.46719,398.35437 C 509.52959,399.60438 508.60779,400.97938 507.70149,402.47937 C 502.45149,397.76064 497.46709,394.51064 492.74839,392.72937 L 492.74839,407.91687 C 492.74839,411.29187 492.81089,413.90124 492.93589,415.74499 L 488.01399,415.74499 C 488.20149,412.5575 488.29529,407.79188 488.29529,401.44812 L 488.29529,378.15125 C 488.29529,377.49503 488.20149,376.93253 488.01399,376.46375 C 487.82649,376.05753 487.95149,375.80753 488.38899,375.71375 L 493.12339,375.99499 C 493.49839,376.15128 493.52959,376.41691 493.21719,376.79187 L 492.74839,377.63562 L 492.74839,391.27625 L 494.20149,388.65125"/>
		<path id="path106271" d="M 484.44352,377.39557 L 484.33943,393.11344" class="stroke"/>
		<text x="477.07367" y="384.65842" class="number">1</text>
		<path id="path107192" d="M 498.18365,386.86793 L 509.63375,393.32163" class="stroke"/>
		<text x="501.53525" y="385.28296" class="number">2</text>
	</g>
	<text x="546.32471" y="442.67139" id="cellSO" class="label cell">SO</text>
	<g id="gSO">
		<path id="path2165" d="M 572.51523,382.37734 C 572.16373,382.38907 571.96063,382.60393 571.89023,383.00234 C 572.14023,383.37737 572.10893,384.81488 571.76523,387.31484 C 571.42153,389.81487 570.57773,392.97112 569.23403,396.81484 C 567.89023,400.62736 565.39023,404.06486 561.73403,407.09609 C 558.10893,410.0961 553.85903,412.1586 548.98403,413.28359 L 548.98403,413.65859 C 549.98403,414.93984 550.70283,416.34608 551.14023,417.90859 C 557.60903,415.37734 562.57773,412.4711 566.07783,409.15859 C 569.57783,405.8461 572.10893,402.06485 573.64023,397.84609 C 575.20283,393.62736 576.29653,389.28362 576.95283,384.81484 L 577.67153,384.03359 C 578.04643,383.65862 578.01523,383.37737 577.57783,383.22109 L 572.92153,382.43984 C 572.77313,382.40078 572.63243,382.37343 572.51523,382.37734 z M 548.14023,384.03359 L 544.67153,386.68984 C 547.51523,389.84612 549.79653,393.15862 551.54653,396.62734 C 553.10903,395.34612 554.51523,394.34612 555.73403,393.62734 C 553.45273,390.28362 550.92163,387.09613 548.14023,384.03359 z "/>
		<path id="path108113" d="M 550.64595,381.45516 L 558.14056,390.92751" class="stroke"/>
		<path id="path109030" d="M 581.35305,384.682 C 581.76942,391.96843 576.22652,401.5709 573.85843,406.12492" class="stroke"/>
		<text x="553.37299" y="382.05612" class="number">1</text>
		<text x="582.31055" y="396.94125" class="number">2</text>
	</g>
	<text x="608.32471" y="442.67139" id="cellKO" class="label cell">KO</text>
	<g id="gKO">
		<path id="path2179" d="M 610.01398,384.24155 L 641.27958,384.24155 L 641.27958,412.78843 L 636.73268,412.78843 L 636.73268,410.81968 L 610.01398,410.81968 L 610.01398,406.55405 L 636.73268,406.55405 L 636.73268,388.50718 L 610.01398,388.50718 L 610.01398,384.24155"/>
		<path id="path109955" d="M 629.46193,380.6802 L 646.53807,380.23858 L 646.68528,391.86802" class="stroke"/>
		<text x="629.77399" y="377.9343" class="number">1</text>
		<path id="path110876" d="M 608.55838,414.24365 L 622.98477,414.24365" class="stroke"/>
		<text x="608.21918" y="421.96664" class="number">2</text>
	</g>
	<text x="680.32471" y="442.67139" id="cellO" class="label cell">O</text>
	<g id="gO">
		<path id="path2189" d="M 692.62949,376.48477 L 697.03579,376.67227 C 697.41069,376.79731 697.47319,377.04731 697.22329,377.42227 L 696.70759,378.26602 L 696.70759,386.04727 L 710.95759,386.04727 L 710.95759,390.21914 L 696.70759,390.21914 L 696.70759,410.04727 C 696.73889,411.32852 696.72319,412.40665 696.66079,413.28164 C 696.59819,414.15664 696.19199,414.92227 695.44199,415.57852 C 694.72319,416.26602 693.52009,416.50039 691.83259,416.28164 C 690.17639,416.09414 688.14509,415.67227 685.73889,415.01602 C 686.23889,413.60977 686.62949,412.15665 686.91079,410.65664 L 687.19199,410.46914 C 688.66069,411.15665 689.78569,411.54727 690.56699,411.64102 C 691.34819,411.73477 691.81699,411.67227 691.97329,411.45352 C 692.16069,411.20352 692.25449,410.78165 692.25449,410.1879 L 692.25449,393.07852 C 690.25449,396.23479 687.67639,399.42228 684.52009,402.64102 C 681.39509,405.85978 677.39509,409.3754 672.52009,413.1879 C 671.61389,411.53165 670.61389,410.23477 669.52014,409.29727 L 669.52014,408.92227 C 673.83259,406.48478 677.75449,403.43791 681.28579,399.78164 C 684.81699,396.12541 687.23889,392.93792 688.55139,390.21914 L 670.27014,390.21914 L 670.27014,386.04727 L 692.25449,386.04727 L 692.25449,379.39102 C 692.25449,378.32856 692.16069,377.60981 691.97329,377.23477 C 691.84819,376.67231 692.06699,376.42231 692.62949,376.48477"/>
		<path id="path111797" d="M 670.533,383.03553 L 685.98985,382.88832" class="stroke"/>
		<path id="path112714" d="M 700.82522,373.63947 L 700.67801,383.79683" class="stroke"/>
		<path id="path113631" d="M 683.3401,392.45685 C 680.9532,395.63969 674.09756,401.27671 670.87793,403.73091" class="stroke"/>
		<text x="669.53705" y="381.05704" class="number">1</text>
		<text x="703.05463" y="376.89337" class="number">2</text>
		<text x="669.95337" y="397.71176" class="number">3</text>
	</g>
	<!-- column headers -->
	<text x="38.317238" y="34.671387" id="colN" class="label col">n</text>
	<text x="102.31724" y="34.671387" id="colw" class="label col">w</text>
	<text x="170.31723" y="34.671387" id="colr" class="label col">r</text>
	<text x="234.31723" y="34.671387" id="coly" class="label col">y</text>
	<text x="296.31723" y="34.671387" id="colm" class="label col">m</text>
	<text x="362.31723" y="34.671387" id="colh" class="label col">h</text>
	<text x="426.31723" y="34.671387" id="coln" class="label col">n</text>
	<text x="492.31723" y="34.671387" id="colt" class="label col">t</text>
	<text x="556.31726" y="34.671387" id="cols" class="label col">s</text>
	<text x="618.31726" y="34.671387" id="colk" class="label col">k</text>
	<!-- row headers -->
	<text x="736.31726" y="90.671387" id="rowa" class="label row">a</text>
	<text x="738.31726" y="170.67139" id="rowi" class="label row">i</text>
	<text x="736.31726" y="252.67139" id="rowu" class="label row">u</text>
	<text x="736.31726" y="332.67139" id="rowe" class="label row">e</text>
	<text x="736.31726" y="410.67139" id="rowo" class="label row">o</text>
</svg>
